<?xml version="1.0" encoding="utf-8"?>
<!-- Generator: Adobe Illustrator 25.4.1, SVG Export Plug-In . SVG Version: 6.00 Build 0)  -->
<svg version="1.1" id="Layer_1" xmlns="http://www.w3.org/2000/svg" xmlns:xlink="http://www.w3.org/1999/xlink" x="0px" y="0px"
	 viewBox="0 0 1366 768" style="enable-background:new 0 0 1366 768;" xml:space="preserve">
<style type="text/css">
	.st0{fill:url(#SVGID_1_);}
	.st1{fill:url(#SVGID_00000064327736026221563760000007315136863770736291_);}
	.st2{fill:none;}
	.st3{fill:#0071BC;}
	.st4{font-family:'BigCaslon-Medium';}
	.st5{font-size:208px;}
	.st6{fill:url(#SVGID_00000170957312191424399910000014642748347752119939_);}
	.st7{fill:#0000FF;}
	.st8{font-size:210px;}
	.st9{fill:url(#SVGID_00000019678715460357871690000011806286262004892816_);}
	.st10{fill:#29ABE2;}
	.st11{fill:url(#SVGID_00000111167904706420601960000017495338648661417376_);}
	.st12{fill:url(#SVGID_00000132077271581888233940000013485325820255787953_);}
	.st13{fill:url(#SVGID_00000054975853031883925680000018230263312660112814_);}
	.st14{fill:url(#SVGID_00000011006959449587370350000005678131921332852141_);}
	.st15{fill:url(#SVGID_00000145020463003216343500000016890565363505509536_);}
	.st16{fill:url(#SVGID_00000176034969263753300470000015375602953887250615_);}
	.st17{fill:url(#SVGID_00000064347921814133958000000011234919665634886802_);}
	.st18{fill:url(#SVGID_00000070118265324410807880000005538309203269721483_);}
	.st19{fill:url(#SVGID_00000124162057307065008260000010742684067312657539_);}
	.st20{fill:url(#SVGID_00000067914807754736472790000015418045973280447399_);}
	.st21{fill:url(#SVGID_00000088114486177520690970000016535401184866223503_);}
	.st22{fill:url(#SVGID_00000025415492457424096430000000978497424611509173_);}
	.st23{font-size:100px;}
	.st24{fill:url(#SVGID_00000045596839123241123390000018104990678069415592_);}
	.st25{fill:url(#SVGID_00000116916284007963154030000007252161399646137006_);}
	.st26{fill:url(#SVGID_00000013150602317454563540000016510471516522964155_);}
	.st27{fill:url(#SVGID_00000147194851705793018850000015207399907349895810_);}
	.st28{fill:url(#SVGID_00000068644761206232702350000014276278879739472021_);}
	.st29{fill:url(#SVGID_00000107551800833031206430000009394316007085985968_);}
	.st30{fill:url(#SVGID_00000101809291869926369380000014712447005638083224_);}
	.st31{fill:url(#SVGID_00000024693399818579333760000014577443917643641732_);}
	.st32{fill:url(#SVGID_00000052783173102750454680000015004030635227854982_);}
	.st33{fill:url(#SVGID_00000152977149217754655320000015713943729797678234_);}
	.st34{fill:url(#SVGID_00000062890816766677802240000010377697102768439460_);}
	.st35{fill:url(#SVGID_00000010300302326727362900000017846563827718126727_);}
	.st36{fill:url(#SVGID_00000083066502919508969850000015567627340946251136_);}
	.st37{fill:url(#SVGID_00000171688170687357160730000007744906570826669960_);}
	.st38{fill:url(#SVGID_00000154400360486738707100000008830507787390554024_);}
	.st39{fill:url(#SVGID_00000127743742166059932730000015872163891991363002_);}
	.st40{fill:url(#SVGID_00000052079545854198338950000010347887395230897328_);}
	.st41{fill:url(#SVGID_00000076594971579886218670000005138913979853223563_);}
	.st42{fill:url(#SVGID_00000080902071571709649690000014793251789520838286_);}
	.st43{fill:url(#SVGID_00000116931032206854295030000017575014337263285939_);}
	.st44{fill:url(#SVGID_00000060710172205442486850000016375487047251027900_);}
	.st45{fill:url(#SVGID_00000109744733536776572740000005151565811311086252_);}
	.st46{fill:url(#SVGID_00000013881480487169708350000011755488461191822760_);}
	.st47{fill:url(#SVGID_00000179606766364679713450000006231756559038686611_);}
	.st48{fill:url(#SVGID_00000090284467004898317080000009674388698282668941_);}
	.st49{font-size:78px;}
	.st50{fill:url(#SVGID_00000158735804146941035730000015253063752614962061_);}
	.st51{fill:url(#SVGID_00000099656389728778437100000005848907054993190841_);}
	.st52{fill:url(#SVGID_00000147198699422618761440000000845699033182748308_);}
	.st53{fill:url(#SVGID_00000155147665482052388160000003794622196455567244_);}
	.st54{fill:url(#SVGID_00000183230816545636106710000006847555927892390557_);}
	.st55{fill:url(#SVGID_00000138544673911915111900000000462634813452214711_);}
	.st56{fill:url(#SVGID_00000166670595101346096190000013604233253777261487_);}
	.st57{fill:url(#SVGID_00000006707481479851462560000001005292971696849069_);}
	.st58{fill:url(#SVGID_00000054966218529777967660000005883188549263089541_);}
</style>
<g>
	<g>
		<linearGradient id="SVGID_1_" gradientUnits="userSpaceOnUse" x1="0.5" y1="384" x2="1365.5" y2="384">
			<stop  offset="0.0617" style="stop-color:#000093"/>
			<stop  offset="0.2911" style="stop-color:#0000B7"/>
			<stop  offset="0.5769" style="stop-color:#000093"/>
			<stop  offset="0.7936" style="stop-color:#0000B0"/>
			<stop  offset="1" style="stop-color:#00008B"/>
		</linearGradient>
		<rect x="0.5" y="0.5" class="st0" width="1365" height="767"/>
		<path d="M1365,1v766H1V1H1365 M1366,0H0v768h1366V0L1366,0z"/>
	</g>
	<g>
		<g>
			
				<linearGradient id="SVGID_00000040565937540484207640000004432494032422611895_" gradientUnits="userSpaceOnUse" x1="1.8475" y1="97.2476" x2="219.6543" y2="97.2476">
				<stop  offset="0.0308" style="stop-color:#00FFFF"/>
				<stop  offset="0.5066" style="stop-color:#0000FF"/>
				<stop  offset="1" style="stop-color:#00D3FF"/>
			</linearGradient>
			<path style="fill:url(#SVGID_00000040565937540484207640000004432494032422611895_);" d="M108.58,146.28H37.65l-0.62-1.66
				c4.71-4.02,9.84-8.49,15.39-13.42c5.54-4.92,10.74-10.09,15.6-15.5c4.85-5.41,8.91-10.92,12.17-16.54
				c3.26-5.62,4.89-10.99,4.89-16.12c0-2.77-0.42-5.51-1.25-8.22c-0.83-2.7-2.05-5.1-3.64-7.18c-1.6-2.08-3.64-3.74-6.14-4.99
				c-2.5-1.25-5.41-1.87-8.74-1.87c-7.07,0-13.07,1.91-17.99,5.72c-4.92,3.82-9.05,8.42-12.38,13.83l-2.08-1.25
				c1.52-2.77,3.67-6.06,6.45-9.88c2.77-3.81,6.06-7.45,9.88-10.92c3.81-3.46,8.01-6.41,12.58-8.84c4.58-2.42,9.43-3.64,14.56-3.64
				c6.93,0,12.72,2.15,17.37,6.45c4.64,4.3,6.97,10.19,6.97,17.68c0,5.82-1.28,11.37-3.85,16.64c-2.57,5.27-5.82,10.3-9.78,15.08
				c-3.95,4.78-8.32,9.4-13.1,13.83c-4.78,4.44-9.4,8.74-13.83,12.9v0.42h37.44c3.74,0,6.69-0.28,8.84-0.83
				c2.15-0.55,3.88-1.35,5.2-2.39c1.32-1.04,2.36-2.22,3.12-3.54c0.76-1.32,1.49-2.74,2.18-4.26l2.08,0.62L108.58,146.28z"/>
		</g>
		<rect x="1.85" y="-22.44" class="st2" width="143.15" height="186.44"/>
		<text transform="matrix(1 0 0 1 28.0811 146.2832)" class="st3 st4 st5">2</text>
	</g>
	<g>
		<g>
			
				<linearGradient id="SVGID_00000055667229940936197840000013883755647229906316_" gradientUnits="userSpaceOnUse" x1="804.7294" y1="499.8193" x2="1014.8545" y2="499.8193">
				<stop  offset="0.0308" style="stop-color:#00FFFF"/>
				<stop  offset="0.5066" style="stop-color:#0000FF"/>
				<stop  offset="1" style="stop-color:#00D3FF"/>
			</linearGradient>
			<path style="fill:url(#SVGID_00000055667229940936197840000013883755647229906316_);" d="M855.51,549.33v-2.31
				c1.96,0,3.88-0.21,5.78-0.63c1.89-0.42,3.57-0.98,5.04-1.68c1.47-0.7,2.69-1.64,3.68-2.83c0.98-1.19,1.47-2.55,1.47-4.09v-76.44
				c0-1.68-0.53-3.08-1.58-4.2c-1.05-1.12-2.38-2.03-3.99-2.73c-1.61-0.7-3.4-1.22-5.35-1.58c-1.96-0.35-3.92-0.52-5.88-0.52V450
				h51.03v2.31c-1.82,0-3.71,0.18-5.67,0.52c-1.96,0.35-3.78,0.91-5.46,1.68c-1.68,0.77-3.04,1.72-4.09,2.83
				c-1.05,1.12-1.58,2.52-1.58,4.2v76.44c0,1.82,0.56,3.29,1.68,4.41c1.12,1.12,2.52,2.03,4.2,2.73c1.68,0.7,3.5,1.19,5.46,1.47
				c1.96,0.28,3.78,0.42,5.46,0.42v2.31H855.51z"/>
		</g>
		<rect x="804.73" y="386.19" class="st2" width="150.27" height="173.81"/>
		<text transform="matrix(1 0 0 1 846.6856 549.3265)" class="st7 st4 st8">1</text>
	</g>
	<g>
		<g>
			
				<linearGradient id="SVGID_00000087403751870779651960000015705171966028689304_" gradientUnits="userSpaceOnUse" x1="212.7294" y1="207.0649" x2="446.5" y2="207.0649">
				<stop  offset="0.0308" style="stop-color:#00FFFF"/>
				<stop  offset="0.5066" style="stop-color:#0000FF"/>
				<stop  offset="1" style="stop-color:#00D3FF"/>
			</linearGradient>
			<path style="fill:url(#SVGID_00000087403751870779651960000015705171966028689304_);" d="M336.88,225.73
				c-2.36,5.96-5.65,11.23-9.88,15.81c-4.23,4.58-9.33,8.15-15.29,10.71c-5.96,2.57-12.55,3.85-19.76,3.85
				c-6.38,0-12.45-1.35-18.2-4.06c-5.76-2.7-10.78-6.45-15.08-11.23c-4.3-4.78-7.7-10.33-10.19-16.64
				c-2.5-6.31-3.74-12.86-3.74-19.66c0-8.32,1.38-16.29,4.16-23.92c2.77-7.62,6.55-14.84,11.34-21.63
				c4.78-6.79,10.3-13.14,16.54-19.03c6.24-5.89,12.82-11.13,19.76-15.7c6.93-4.58,13.94-8.53,21.01-11.86s13.86-5.89,20.38-7.7
				l1.66,2.5c-5.41,2.36-10.85,5.3-16.33,8.84c-5.48,3.54-10.85,7.7-16.12,12.48c-5.27,4.78-10.23,10.19-14.87,16.22
				c-4.65,6.03-8.84,12.72-12.58,20.07c2.36-0.69,4.61-1.21,6.76-1.56c2.15-0.34,4.82-0.52,8.01-0.52c6.93,0,13.21,1.14,18.82,3.43
				c5.62,2.29,10.43,5.44,14.46,9.46c4.02,4.02,7.14,8.7,9.36,14.04c2.22,5.34,3.33,11.06,3.33,17.16
				C340.41,213.46,339.23,219.77,336.88,225.73z M319.81,198.17c-1.26-5.75-3.18-10.95-5.76-15.6c-2.58-4.64-5.93-8.46-10.06-11.44
				c-4.12-2.98-9.04-4.47-14.77-4.47c-2.38,0-4.54,0.31-6.5,0.94s-3.7,1.77-5.24,3.43c-5.45,5.96-9.15,12.72-11.1,20.28
				c-1.96,7.56-2.93,15.08-2.93,22.57c0,12.48,2.62,22.15,7.86,29.02c5.24,6.86,12.33,10.3,21.26,10.3c8.52,0,15.5-3.15,20.95-9.46
				c5.45-6.31,8.17-15.77,8.17-28.39C321.69,209.65,321.06,203.93,319.81,198.17z"/>
		</g>
		<rect x="212.73" y="94.19" class="st2" width="159.27" height="172.81"/>
		<text transform="matrix(1 0 0 1 239.1173 256.1004)" class="st10 st4 st5">6</text>
	</g>
	<g>
		<g>
			
				<linearGradient id="SVGID_00000024716282196944791920000012455756080360823211_" gradientUnits="userSpaceOnUse" x1="45.0703" y1="446.0649" x2="327.5469" y2="446.0649">
				<stop  offset="0.0308" style="stop-color:#00FFFF"/>
				<stop  offset="0.5066" style="stop-color:#0000FF"/>
				<stop  offset="1" style="stop-color:#00D3FF"/>
			</linearGradient>
			<path style="fill:url(#SVGID_00000024716282196944791920000012455756080360823211_);" d="M58.81,495.1v-2.29
				c1.94,0,3.85-0.21,5.72-0.62s3.54-0.97,4.99-1.66c1.46-0.69,2.67-1.63,3.64-2.81c0.97-1.18,1.46-2.53,1.46-4.06v-75.71
				c0-1.66-0.52-3.05-1.56-4.16c-1.04-1.11-2.36-2.01-3.95-2.7c-1.6-0.69-3.36-1.21-5.3-1.56c-1.94-0.34-3.88-0.52-5.82-0.52v-2.29
				h50.54V399c-1.8,0-3.68,0.18-5.62,0.52c-1.94,0.35-3.74,0.9-5.41,1.66c-1.66,0.76-3.02,1.7-4.06,2.81
				c-1.04,1.11-1.56,2.5-1.56,4.16v75.71c0,1.8,0.55,3.26,1.66,4.37c1.11,1.11,2.5,2.01,4.16,2.7c1.66,0.7,3.46,1.18,5.41,1.46
				c1.94,0.28,3.74,0.42,5.41,0.42v2.29H58.81z"/>
			
				<linearGradient id="SVGID_00000054964954827830714540000011376534997243163043_" gradientUnits="userSpaceOnUse" x1="45.0703" y1="446.0649" x2="327.5469" y2="446.0649">
				<stop  offset="0.0308" style="stop-color:#00FFFF"/>
				<stop  offset="0.5066" style="stop-color:#0000FF"/>
				<stop  offset="1" style="stop-color:#00D3FF"/>
			</linearGradient>
			<path style="fill:url(#SVGID_00000054964954827830714540000011376534997243163043_);" d="M216.99,465.25
				c-2.7,6.31-6.31,11.75-10.82,16.33c-4.51,4.58-9.74,8.08-15.7,10.5c-5.96,2.43-12.2,3.64-18.72,3.64
				c-5.41,0-11.06-0.94-16.95-2.81c-5.9-1.87-11.34-4.92-16.33-9.15c-4.99-4.23-9.08-9.64-12.27-16.22
				c-3.19-6.58-4.78-14.46-4.78-23.61c0-6.52,1.25-12.72,3.74-18.62c2.5-5.89,6-11.09,10.5-15.6c4.5-4.5,9.88-8.11,16.12-10.82
				c6.24-2.7,13.1-4.06,20.59-4.06c6.1,0,12.06,1.11,17.89,3.33c5.82,2.22,11.02,5.44,15.6,9.67c4.58,4.23,8.25,9.43,11.02,15.6
				c2.77,6.17,4.16,13.21,4.16,21.11C221.04,452.04,219.69,458.94,216.99,465.25z M208.15,429.68c-1.94-5.06-4.65-9.53-8.11-13.42
				c-3.47-3.88-7.63-6.97-12.48-9.26c-4.86-2.29-10.26-3.43-16.22-3.43c-5.82,0-11.16,1.14-16.02,3.43
				c-4.86,2.29-9.05,5.38-12.58,9.26c-3.54,3.88-6.31,8.36-8.32,13.42c-2.01,5.06-3.02,10.37-3.02,15.91c0,5.55,1,10.85,3.02,15.91
				c2.01,5.06,4.82,9.5,8.42,13.31c3.6,3.82,7.87,6.86,12.79,9.15c4.92,2.29,10.3,3.43,16.12,3.43c5.82,0,11.16-1.14,16.02-3.43
				c4.85-2.29,9.01-5.34,12.48-9.15c3.46-3.81,6.14-8.25,8.01-13.31c1.87-5.06,2.81-10.36,2.81-15.91
				C211.06,440.05,210.09,434.75,208.15,429.68z"/>
		</g>
		<rect x="49.73" y="331.19" class="st2" width="177.27" height="176.81"/>
		<text transform="matrix(1 0 0 1 50.0704 495.1004)" class="st7 st4 st5">10</text>
	</g>
	<g>
		<g>
			
				<linearGradient id="SVGID_00000052813087680364346310000009982737473975705001_" gradientUnits="userSpaceOnUse" x1="551.7294" y1="687.0649" x2="787.2959" y2="687.0649">
				<stop  offset="0.0308" style="stop-color:#00FFFF"/>
				<stop  offset="0.5066" style="stop-color:#0000FF"/>
				<stop  offset="1" style="stop-color:#00D3FF"/>
			</linearGradient>
			<path style="fill:url(#SVGID_00000052813087680364346310000009982737473975705001_);" d="M675.91,712.49
				c-2.43,5.06-5.69,9.43-9.78,13.1c-4.09,3.68-8.91,6.48-14.46,8.42c-5.55,1.94-11.44,2.91-17.68,2.91
				c-4.86,0-9.74-0.73-14.66-2.18c-4.92-1.46-9.36-3.67-13.31-6.66c-3.95-2.98-7.14-6.58-9.57-10.82
				c-2.43-4.23-3.64-8.91-3.64-14.04c0-4.3,0.9-8.25,2.7-11.86c1.8-3.6,4.16-6.97,7.07-10.09c2.91-3.12,6.14-6,9.67-8.63
				c3.54-2.63,7.04-5.13,10.5-7.49c-3.61-2.5-7.11-5.13-10.5-7.9c-3.4-2.77-6.42-5.79-9.05-9.05c-2.64-3.26-4.75-6.9-6.34-10.92
				c-1.6-4.02-2.39-8.53-2.39-13.52c0-5.54,1.18-10.68,3.54-15.39c2.36-4.71,5.48-8.8,9.36-12.27c3.88-3.46,8.32-6.21,13.31-8.22
				c4.99-2.01,10.05-3.02,15.18-3.02c6.52,0,12.34,0.87,17.47,2.6c5.13,1.74,9.46,4.06,13,6.97c3.54,2.91,6.27,6.34,8.22,10.3
				c1.94,3.95,2.91,8.15,2.91,12.58c0,4.16-0.87,8.01-2.6,11.54c-1.74,3.54-4.06,6.86-6.97,9.98c-2.91,3.12-6.28,6.03-10.09,8.74
				c-3.82,2.7-7.73,5.3-11.75,7.8c2.91,1.66,6.31,3.64,10.19,5.93c3.88,2.29,7.52,5.1,10.92,8.42c3.4,3.33,6.31,7.14,8.74,11.44
				c2.42,4.3,3.64,9.22,3.64,14.77C679.55,701.92,678.33,707.43,675.91,712.49z M659.89,694.5c-1.74-3.74-4.16-7.24-7.28-10.5
				c-3.12-3.26-6.9-6.27-11.34-9.05c-4.44-2.77-9.43-5.48-14.98-8.11c-3.19,1.8-5.93,4.13-8.22,6.97c-2.29,2.84-4.2,5.9-5.72,9.15
				c-1.53,3.26-2.67,6.55-3.43,9.88c-0.76,3.33-1.14,6.45-1.14,9.36c0,9.98,2.77,17.75,8.32,23.3c5.54,5.55,12.62,8.32,21.22,8.32
				c4.58,0,8.49-0.8,11.75-2.39c3.26-1.59,5.86-3.64,7.8-6.14c1.94-2.5,3.36-5.3,4.26-8.42c0.9-3.12,1.35-6.27,1.35-9.46
				C662.49,702.54,661.62,698.25,659.89,694.5z M661.55,606.21c-1.18-3.54-2.91-6.62-5.2-9.26c-2.29-2.63-5.13-4.71-8.53-6.24
				c-3.4-1.52-7.25-2.29-11.54-2.29c-3.47,0-6.8,0.56-9.98,1.66c-3.19,1.11-6.03,2.7-8.53,4.78c-2.5,2.08-4.47,4.65-5.93,7.7
				c-1.46,3.05-2.18,6.59-2.18,10.61c0,5.41,1.07,10.19,3.22,14.35c2.15,4.16,4.89,7.87,8.22,11.13c3.33,3.26,6.9,6.07,10.71,8.42
				c3.81,2.36,7.38,4.51,10.71,6.45c7.07-4.02,12.3-8.98,15.7-14.87c3.4-5.89,5.1-13,5.1-21.32
				C663.32,613.45,662.73,609.74,661.55,606.21z"/>
		</g>
		<rect x="551.73" y="552.19" class="st2" width="168.27" height="216.81"/>
		<text transform="matrix(1 0 0 1 585.3214 736.1008)" class="st3 st4 st5">8</text>
	</g>
	<g>
		<g>
			
				<linearGradient id="SVGID_00000176739771752619604160000011749657320167246749_" gradientUnits="userSpaceOnUse" x1="940.0283" y1="100.1575" x2="1169.0762" y2="100.1575">
				<stop  offset="0.0308" style="stop-color:#00FFFF"/>
				<stop  offset="0.5066" style="stop-color:#0000FF"/>
				<stop  offset="1" style="stop-color:#00D3FF"/>
			</linearGradient>
			<path style="fill:url(#SVGID_00000176739771752619604160000011749657320167246749_);" d="M1067.78,65.25
				c-1.94,4.78-4.47,10.96-7.59,18.51c-3.12,7.56-6.62,16.19-10.5,25.9c-3.88,9.71-8.01,19.9-12.38,30.58
				c-4.37,10.68-8.77,21.7-13.21,33.07c-4.44,11.37-8.74,22.46-12.9,33.28l-13.94-0.62c0.69-1.39,2.32-4.65,4.89-9.78
				c2.56-5.13,5.68-11.41,9.36-18.82c3.67-7.42,7.73-15.6,12.17-24.54c4.44-8.94,8.87-18.06,13.31-27.35
				c4.44-9.29,8.7-18.37,12.79-27.25c4.09-8.87,7.59-16.85,10.5-23.92h-56.37c-4.44,0-8.08,0.62-10.92,1.87
				c-2.84,1.25-5.17,2.81-6.97,4.68c-1.8,1.87-3.22,3.85-4.26,5.93c-1.04,2.08-1.91,3.95-2.6,5.62l-2.5-0.83l13.52-34.94h81.12
				C1070.9,57.59,1069.72,60.46,1067.78,65.25z"/>
		</g>
		<rect x="940.03" y="-41.01" class="st2" width="163.97" height="241.01"/>
		<text transform="matrix(1 0 0 1 975.84 154.9974)" class="st10 st4 st5">7</text>
	</g>
	<g>
		<g>
			
				<linearGradient id="SVGID_00000063629589594413020600000001780199713815711141_" gradientUnits="userSpaceOnUse" x1="1054.0282" y1="637.6575" x2="1356.6279" y2="637.6575">
				<stop  offset="0.0308" style="stop-color:#00FFFF"/>
				<stop  offset="0.5066" style="stop-color:#0000FF"/>
				<stop  offset="1" style="stop-color:#00D3FF"/>
			</linearGradient>
			<path style="fill:url(#SVGID_00000063629589594413020600000001780199713815711141_);" d="M1133.02,699v-2.29
				c1.94,0,3.85-0.21,5.72-0.62s3.54-0.97,4.99-1.66c1.46-0.69,2.67-1.63,3.64-2.81c0.97-1.18,1.46-2.53,1.46-4.06v-75.71
				c0-1.66-0.52-3.05-1.56-4.16c-1.04-1.11-2.36-2.01-3.95-2.7c-1.6-0.69-3.36-1.21-5.3-1.56c-1.94-0.34-3.88-0.52-5.82-0.52v-2.29
				h50.54v2.29c-1.8,0-3.68,0.18-5.62,0.52c-1.94,0.35-3.74,0.9-5.41,1.66c-1.66,0.76-3.02,1.7-4.06,2.81
				c-1.04,1.11-1.56,2.5-1.56,4.16v75.71c0,1.8,0.55,3.26,1.66,4.37c1.11,1.11,2.5,2.01,4.16,2.7c1.66,0.7,3.46,1.18,5.41,1.46
				c1.94,0.28,3.74,0.42,5.41,0.42V699H1133.02z"/>
			
				<linearGradient id="SVGID_00000098929354448295082720000004910660493148925574_" gradientUnits="userSpaceOnUse" x1="1054.0282" y1="637.6575" x2="1356.6279" y2="637.6575">
				<stop  offset="0.0308" style="stop-color:#00FFFF"/>
				<stop  offset="0.5066" style="stop-color:#0000FF"/>
				<stop  offset="1" style="stop-color:#00D3FF"/>
			</linearGradient>
			<path style="fill:url(#SVGID_00000098929354448295082720000004910660493148925574_);" d="M1198.75,699v-2.29
				c1.94,0,3.85-0.21,5.72-0.62s3.54-0.97,4.99-1.66c1.46-0.69,2.67-1.63,3.64-2.81c0.97-1.18,1.46-2.53,1.46-4.06v-75.71
				c0-1.66-0.52-3.05-1.56-4.16c-1.04-1.11-2.36-2.01-3.95-2.7c-1.6-0.69-3.36-1.21-5.3-1.56c-1.94-0.34-3.88-0.52-5.82-0.52v-2.29
				h50.54v2.29c-1.8,0-3.68,0.18-5.62,0.52c-1.94,0.35-3.74,0.9-5.41,1.66c-1.66,0.76-3.02,1.7-4.06,2.81
				c-1.04,1.11-1.56,2.5-1.56,4.16v75.71c0,1.8,0.55,3.26,1.66,4.37c1.11,1.11,2.5,2.01,4.16,2.7c1.66,0.7,3.46,1.18,5.41,1.46
				c1.94,0.28,3.74,0.42,5.41,0.42V699H1198.75z"/>
		</g>
		<rect x="1054.03" y="489.99" class="st2" width="271.97" height="267.01"/>
		<text transform="matrix(1 0 0 1 1124.2872 698.998)" class="st3 st4 st5">11</text>
	</g>
	<g>
		<g>
			
				<linearGradient id="SVGID_00000027566159889739143290000015095075682487190676_" gradientUnits="userSpaceOnUse" x1="719.0283" y1="113.9624" x2="978.1494" y2="113.9624">
				<stop  offset="0.0308" style="stop-color:#00FFFF"/>
				<stop  offset="0.5066" style="stop-color:#0000FF"/>
				<stop  offset="1" style="stop-color:#00D3FF"/>
			</linearGradient>
			<path style="fill:url(#SVGID_00000027566159889739143290000015095075682487190676_);" d="M863.43,151.04
				c-5.62,11.16-12.83,21.14-21.63,29.95c-8.81,8.8-18.55,16.26-29.22,22.36c-10.68,6.1-21.08,10.47-31.2,13.1l-1.25-3.11
				c5.82-2.49,11.54-5.43,17.16-8.82c5.62-3.39,10.99-7.51,16.12-12.35c5.13-4.85,9.91-10.48,14.35-16.91
				c4.44-6.44,8.46-13.66,12.06-21.68c-3.05,1.19-6,1.98-8.84,2.38c-2.84,0.4-5.86,0.59-9.05,0.59c-7.21,0-13.62-1.18-19.24-3.54
				c-5.62-2.36-10.4-5.58-14.35-9.67c-3.95-4.09-6.97-8.91-9.05-14.46c-2.08-5.54-3.12-11.51-3.12-17.89
				c0-6.52,1.21-12.69,3.64-18.51c2.42-5.82,5.75-10.95,9.98-15.39c4.23-4.44,9.26-7.97,15.08-10.61
				c5.82-2.63,12.06-3.95,18.72-3.95c6.79,0,13.14,1.42,19.03,4.26c5.89,2.84,10.99,6.66,15.29,11.44
				c4.3,4.78,7.7,10.37,10.19,16.74c2.5,6.38,3.74,13.04,3.74,19.97C871.85,127.85,869.05,139.88,863.43,151.04z M850.85,93.32
				c-1.11-5.13-2.88-9.7-5.3-13.73c-2.43-4.02-5.44-7.28-9.05-9.78c-3.61-2.5-7.9-3.74-12.9-3.74c-8.88,0-15.98,3.12-21.32,9.36
				c-5.34,6.24-8.01,14.98-8.01,26.21c0,5.69,0.66,11.51,1.98,17.47c1.32,5.96,3.36,11.41,6.14,16.33
				c2.77,4.92,6.24,8.98,10.4,12.17c4.16,3.19,9.08,4.78,14.77,4.78c2.91,0,5.54-0.34,7.9-1.04c2.36-0.69,4.37-2.08,6.03-4.16
				c4.44-5.68,7.38-11.72,8.84-18.1c1.46-6.38,2.18-13.1,2.18-20.18C852.51,103.65,851.96,98.45,850.85,93.32z"/>
		</g>
		<rect x="719.03" y="-6.01" class="st2" width="209.97" height="187.01"/>
		<text transform="matrix(1 0 0 1 770.7667 162.9981)" class="st3 st4 st5">9</text>
	</g>
	<g>
		<g>
			
				<linearGradient id="SVGID_00000098194853675408587730000015189641099022476971_" gradientUnits="userSpaceOnUse" x1="34.0283" y1="611.4624" x2="260.5859" y2="611.4624">
				<stop  offset="0.0308" style="stop-color:#00FFFF"/>
				<stop  offset="0.5066" style="stop-color:#0000FF"/>
				<stop  offset="1" style="stop-color:#00D3FF"/>
			</linearGradient>
			<path style="fill:url(#SVGID_00000098194853675408587730000015189641099022476971_);" d="M149.3,681.92
				c-3.33,6.38-7.84,11.82-13.52,16.33c-5.69,4.5-12.2,8.01-19.55,10.5c-7.35,2.5-15.12,3.74-23.3,3.74c-1.94,0-3.99-0.28-6.14-0.83
				c-2.15-0.56-4.09-1.35-5.82-2.39c-1.74-1.04-3.09-2.36-4.06-3.95c-0.97-1.6-1.46-3.5-1.46-5.72c0-2.22,0.52-4.09,1.56-5.62
				c1.04-1.53,2.94-2.29,5.72-2.29c2.36,0,4.37,0.79,6.03,2.36s3.33,3.32,4.99,5.23c1.66,1.91,3.54,3.66,5.62,5.23
				c2.08,1.57,4.58,2.36,7.49,2.36c1.11,0,3.29-0.45,6.55-1.35c3.26-0.9,6.66-2.6,10.19-5.09c3.54-2.49,6.66-5.99,9.36-10.49
				c2.7-4.5,4.06-10.42,4.06-17.75c0-4.99-1.01-9.42-3.02-13.29c-2.01-3.87-4.72-7.23-8.11-10.07c-3.4-2.84-7.35-5.02-11.86-6.54
				c-4.51-1.52-9.26-2.28-14.25-2.28h-2.7l-0.62-1.25c3.6-2.77,7.45-5.74,11.54-8.93c4.09-3.19,7.83-6.65,11.23-10.38
				c3.4-3.74,6.2-7.75,8.42-12.05c2.22-4.29,3.33-9,3.33-14.12c0-5.67-2.12-10.18-6.34-13.5c-4.23-3.32-9.4-4.99-15.5-4.99
				c-5.96,0-10.96,0.94-14.98,2.81c-4.02,1.87-7.56,5.17-10.61,9.88l-1.87-1.04c1.52-3.33,3.36-6.55,5.51-9.67
				c2.15-3.12,4.61-5.93,7.38-8.42c2.77-2.5,5.93-4.5,9.46-6.03c3.54-1.52,7.52-2.29,11.96-2.29c9.43,0,17.16,2.46,23.19,7.38
				c6.03,4.92,9.05,11.34,9.05,19.24c0,3.61-0.7,7-2.08,10.19c-1.39,3.19-3.36,6.31-5.93,9.36c-2.57,3.05-5.62,6.1-9.15,9.15
				c-3.54,3.05-7.46,6.24-11.75,9.57c4.58,0.97,8.98,2.5,13.21,4.58c4.23,2.08,7.97,4.68,11.23,7.8c3.25,3.12,5.82,6.69,7.7,10.71
				c1.88,4.02,2.81,8.25,2.81,12.69C154.29,668.47,152.63,675.54,149.3,681.92z"/>
		</g>
		<rect x="34.03" y="490.99" class="st2" width="168.97" height="188.01"/>
		<text transform="matrix(1 0 0 1 77.3307 660.4982)" class="st3 st4 st5">3</text>
	</g>
	<g>
		<g>
			
				<linearGradient id="SVGID_00000110431318196705933970000016833592942157266336_" gradientUnits="userSpaceOnUse" x1="450.8923" y1="142.468" x2="695.7051" y2="142.468">
				<stop  offset="0.0308" style="stop-color:#00FFFF"/>
				<stop  offset="0.5066" style="stop-color:#0000FF"/>
				<stop  offset="1" style="stop-color:#00D3FF"/>
			</linearGradient>
			<path style="fill:url(#SVGID_00000110431318196705933970000016833592942157266336_);" d="M589.41,96.14
				c-1.53,4.78-3.26,10.44-5.2,16.95H534.5l-3.54,38.69c2.5-0.42,4.82-0.73,6.97-0.94c2.15-0.21,4.61-0.31,7.38-0.31
				c7.49,0,14.07,1.11,19.76,3.33c5.68,2.22,10.4,5.24,14.14,9.05c3.74,3.82,6.58,8.29,8.53,13.42c1.94,5.13,2.91,10.54,2.91,16.22
				c0,7.49-1.49,14.35-4.47,20.59c-2.98,6.24-6.83,11.61-11.54,16.12c-4.72,4.5-9.98,8.01-15.81,10.5
				c-5.82,2.5-11.51,3.74-17.06,3.74c-3.47,0-6.9-0.31-10.3-0.94c-3.4-0.62-6.45-1.63-9.15-3.02c-2.7-1.39-4.92-3.16-6.66-5.3
				c-1.74-2.15-2.6-4.82-2.6-8.01c0-2.22,0.69-4.13,2.08-5.72c1.38-1.6,3.19-2.39,5.41-2.39c3.33,0,5.75,1.07,7.28,3.22
				c1.52,2.15,3.02,4.5,4.47,7.07c1.46,2.56,3.26,4.92,5.41,7.07c2.15,2.15,5.51,3.22,10.09,3.22c4.58,0,8.49-1.11,11.75-3.33
				c3.26-2.22,5.96-5.1,8.11-8.63c2.15-3.54,3.71-7.56,4.68-12.06c0.97-4.51,1.46-8.98,1.46-13.42c0-6.24-0.83-11.37-2.5-15.39
				c-1.66-4.02-3.82-7.28-6.45-9.78c-2.64-2.5-5.55-4.3-8.74-5.41c-3.19-1.11-6.31-1.66-9.36-1.66c-3.19,0-5.93,0.31-8.22,0.94
				s-4.2,1.53-5.72,2.7c-1.53,1.18-2.84,2.64-3.95,4.37c-1.11,1.74-2.08,3.78-2.91,6.14l-2.08-0.42l9.15-89.65h44.3
				c4.58,0,7.62-0.73,9.15-2.18c1.52-1.46,2.91-3.64,4.16-6.55l2.5,0.83C592.18,87.71,590.94,91.35,589.41,96.14z"/>
		</g>
		<rect x="450.89" y="25" class="st2" width="206.11" height="182"/>
		<text transform="matrix(1 0 0 1 513.0751 191.5041)" class="st7 st4 st5">5</text>
	</g>
	<g>
		<g>
			
				<linearGradient id="SVGID_00000158000530900067266330000002918449510057381041_" gradientUnits="userSpaceOnUse" x1="885.4718" y1="351.8468" x2="1165.6182" y2="351.8468">
				<stop  offset="0.0308" style="stop-color:#00FFFF"/>
				<stop  offset="0.5066" style="stop-color:#0000FF"/>
				<stop  offset="1" style="stop-color:#00D3FF"/>
			</linearGradient>
			<path style="fill:url(#SVGID_00000158000530900067266330000002918449510057381041_);" d="M917.05,401.97v-2.29
				c1.94,0,3.85-0.21,5.72-0.62s3.54-0.97,4.99-1.66c1.46-0.69,2.67-1.63,3.64-2.81c0.97-1.18,1.46-2.53,1.46-4.06v-75.71
				c0-1.66-0.52-3.05-1.56-4.16c-1.04-1.11-2.36-2.01-3.95-2.7c-1.6-0.69-3.36-1.21-5.3-1.56c-1.94-0.34-3.88-0.52-5.82-0.52v-2.29
				h50.54v2.29c-1.8,0-3.68,0.18-5.62,0.52c-1.94,0.35-3.74,0.9-5.41,1.66c-1.66,0.76-3.02,1.7-4.06,2.81
				c-1.04,1.11-1.56,2.5-1.56,4.16v75.71c0,1.8,0.55,3.26,1.66,4.37c1.11,1.11,2.5,2.01,4.16,2.7c1.66,0.7,3.46,1.18,5.41,1.46
				c1.94,0.28,3.74,0.42,5.41,0.42v2.29H917.05z"/>
			
				<linearGradient id="SVGID_00000060749500269759869360000001236196046783920559_" gradientUnits="userSpaceOnUse" x1="885.4718" y1="351.8468" x2="1165.6182" y2="351.8468">
				<stop  offset="0.0308" style="stop-color:#00FFFF"/>
				<stop  offset="0.5066" style="stop-color:#0000FF"/>
				<stop  offset="1" style="stop-color:#00D3FF"/>
			</linearGradient>
			<path style="fill:url(#SVGID_00000060749500269759869360000001236196046783920559_);" d="M1054.54,401.97h-70.93l-0.62-1.66
				c4.71-4.02,9.84-8.49,15.39-13.42c5.54-4.92,10.75-10.09,15.6-15.5c4.85-5.41,8.91-10.92,12.17-16.54
				c3.26-5.62,4.89-10.99,4.89-16.12c0-2.77-0.42-5.51-1.25-8.22c-0.83-2.7-2.05-5.1-3.64-7.18c-1.6-2.08-3.64-3.74-6.14-4.99
				c-2.5-1.25-5.41-1.87-8.74-1.87c-7.07,0-13.07,1.91-17.99,5.72c-4.92,3.82-9.05,8.42-12.38,13.83l-2.08-1.25
				c1.52-2.77,3.67-6.06,6.45-9.88c2.77-3.81,6.06-7.45,9.88-10.92c3.81-3.46,8.01-6.41,12.58-8.84c4.58-2.42,9.43-3.64,14.56-3.64
				c6.93,0,12.72,2.15,17.37,6.45c4.64,4.3,6.97,10.19,6.97,17.68c0,5.82-1.28,11.37-3.85,16.64c-2.57,5.27-5.82,10.3-9.78,15.08
				c-3.95,4.78-8.32,9.4-13.1,13.83c-4.78,4.44-9.4,8.74-13.83,12.9v0.42h37.44c3.74,0,6.69-0.28,8.84-0.83
				c2.15-0.55,3.88-1.35,5.2-2.39c1.32-1.04,2.36-2.22,3.12-3.54c0.76-1.32,1.49-2.74,2.18-4.26l2.08,0.62L1054.54,401.97z"/>
		</g>
		<rect x="885.47" y="215.4" class="st2" width="202.11" height="222.13"/>
		<text transform="matrix(1 0 0 1 908.3187 401.9654)" class="st7 st4 st5">12</text>
	</g>
	<g>
		<g>
			
				<linearGradient id="SVGID_00000021109527088853873700000015054668740392879032_" gradientUnits="userSpaceOnUse" x1="637.9365" y1="232.7648" x2="767.0371" y2="232.7648" gradientTransform="matrix(-1 0 0 -1 1314.9365 711.1236)">
				<stop  offset="0.0308" style="stop-color:#00FFFF"/>
				<stop  offset="0.5066" style="stop-color:#0000FF"/>
				<stop  offset="1" style="stop-color:#00D3FF"/>
			</linearGradient>
			<path style="fill:url(#SVGID_00000021109527088853873700000015054668740392879032_);" d="M603.9,442.06H638l0.3,0.8
				c-2.27,1.93-4.73,4.08-7.4,6.45c-2.67,2.37-5.17,4.85-7.5,7.45c-2.33,2.6-4.28,5.25-5.85,7.95c-1.57,2.7-2.35,5.28-2.35,7.75
				c0,1.33,0.2,2.65,0.6,3.95c0.4,1.3,0.98,2.45,1.75,3.45c0.77,1,1.75,1.8,2.95,2.4c1.2,0.6,2.6,0.9,4.2,0.9
				c3.4,0,6.28-0.92,8.65-2.75c2.37-1.83,4.35-4.05,5.95-6.65l1,0.6c-0.73,1.33-1.77,2.92-3.1,4.75c-1.33,1.83-2.92,3.58-4.75,5.25
				c-1.83,1.67-3.85,3.08-6.05,4.25c-2.2,1.17-4.53,1.75-7,1.75c-3.33,0-6.12-1.03-8.35-3.1c-2.23-2.07-3.35-4.9-3.35-8.5
				c0-2.8,0.62-5.47,1.85-8c1.23-2.53,2.8-4.95,4.7-7.25s4-4.52,6.3-6.65c2.3-2.13,4.52-4.2,6.65-6.2v-0.2h-18
				c-1.8,0-3.22,0.13-4.25,0.4c-1.03,0.27-1.87,0.65-2.5,1.15c-0.63,0.5-1.13,1.07-1.5,1.7c-0.37,0.63-0.72,1.32-1.05,2.05l-1-0.3
				L603.9,442.06z"/>
		</g>
		<rect x="564.6" y="390.59" class="st2" width="112.4" height="175.53"/>
		<text transform="matrix(-1 0 0 -1 642.5981 442.0586)" class="st3 st4 st23">2</text>
	</g>
	<g>
		<g>
			
				<linearGradient id="SVGID_00000060744620240923989680000015793557274728002472_" gradientUnits="userSpaceOnUse" x1="852.3537" y1="384.5373" x2="978.249" y2="384.5373" gradientTransform="matrix(-1 0 0 -1 1314.9365 711.1236)">
				<stop  offset="0.0308" style="stop-color:#00FFFF"/>
				<stop  offset="0.5066" style="stop-color:#0000FF"/>
				<stop  offset="1" style="stop-color:#00D3FF"/>
			</linearGradient>
			<path style="fill:url(#SVGID_00000060744620240923989680000015793557274728002472_);" d="M415.19,290.29v1.1
				c-0.93,0-1.85,0.1-2.75,0.3c-0.9,0.2-1.7,0.47-2.4,0.8c-0.7,0.33-1.28,0.78-1.75,1.35c-0.47,0.57-0.7,1.22-0.7,1.95v36.4
				c0,0.8,0.25,1.47,0.75,2c0.5,0.53,1.13,0.97,1.9,1.3c0.77,0.33,1.62,0.58,2.55,0.75c0.93,0.17,1.87,0.25,2.8,0.25v1.1h-24.3v-1.1
				c0.87,0,1.77-0.08,2.7-0.25c0.93-0.17,1.8-0.43,2.6-0.8c0.8-0.37,1.45-0.82,1.95-1.35c0.5-0.53,0.75-1.2,0.75-2v-36.4
				c0-0.87-0.27-1.57-0.8-2.1c-0.53-0.53-1.2-0.97-2-1.3c-0.8-0.33-1.67-0.57-2.6-0.7c-0.93-0.13-1.8-0.2-2.6-0.2v-1.1H415.19z"/>
		</g>
		<rect x="344.59" y="244.77" class="st2" width="117.99" height="163.63"/>
		<text transform="matrix(-1 0 0 -1 419.3872 290.2871)" class="st7 st4 st23">1</text>
	</g>
	<g>
		<g>
			
				<linearGradient id="SVGID_00000086658000734136811920000017280351955850967482_" gradientUnits="userSpaceOnUse" x1="837.7416" y1="616.687" x2="976.9707" y2="616.687" gradientTransform="matrix(-1 0 0 -1 1314.9365 711.1236)">
				<stop  offset="0.0308" style="stop-color:#00FFFF"/>
				<stop  offset="0.5066" style="stop-color:#0000FF"/>
				<stop  offset="1" style="stop-color:#00D3FF"/>
			</linearGradient>
			<path style="fill:url(#SVGID_00000086658000734136811920000017280351955850967482_);" d="M393.27,72.74
				c1.13-2.87,2.72-5.4,4.75-7.6c2.03-2.2,4.48-3.92,7.35-5.15c2.87-1.23,6.03-1.85,9.5-1.85c3.07,0,5.98,0.65,8.75,1.95
				c2.77,1.3,5.18,3.1,7.25,5.4c2.07,2.3,3.7,4.97,4.9,8c1.2,3.03,1.8,6.18,1.8,9.45c0,4-0.67,7.83-2,11.5
				c-1.33,3.67-3.15,7.13-5.45,10.4c-2.3,3.27-4.95,6.32-7.95,9.15c-3,2.83-6.17,5.35-9.5,7.55c-3.33,2.2-6.7,4.1-10.1,5.7
				c-3.4,1.6-6.67,2.83-9.8,3.7l-0.8-1.2c2.6-1.13,5.22-2.55,7.85-4.25c2.63-1.7,5.22-3.7,7.75-6c2.53-2.3,4.92-4.9,7.15-7.8
				c2.23-2.9,4.25-6.12,6.05-9.65c-1.13,0.33-2.22,0.58-3.25,0.75c-1.03,0.17-2.32,0.25-3.85,0.25c-3.33,0-6.35-0.55-9.05-1.65
				c-2.7-1.1-5.02-2.62-6.95-4.55c-1.93-1.93-3.43-4.18-4.5-6.75c-1.07-2.57-1.6-5.32-1.6-8.25
				C391.56,78.64,392.13,75.6,393.27,72.74z M401.47,85.99c0.6,2.77,1.53,5.27,2.77,7.5c1.24,2.23,2.85,4.07,4.83,5.5
				c1.98,1.43,4.35,2.15,7.1,2.15c1.14,0,2.18-0.15,3.12-0.45c0.94-0.3,1.78-0.85,2.52-1.65c2.62-2.87,4.4-6.12,5.34-9.75
				c0.94-3.63,1.41-7.25,1.41-10.85c0-6-1.26-10.65-3.78-13.95c-2.52-3.3-5.93-4.95-10.22-4.95c-4.1,0-7.45,1.52-10.07,4.55
				c-2.62,3.03-3.93,7.58-3.93,13.65C400.56,80.47,400.87,83.22,401.47,85.99z"/>
		</g>
		<rect x="352.14" y="13.09" class="st2" width="125.06" height="162.69"/>
		<text transform="matrix(-1 0 0 -1 440.2651 58.1372)" class="st10 st4 st23">6</text>
	</g>
	<g>
		<g>
			
				<linearGradient id="SVGID_00000012431110833411247610000009862998762372226994_" gradientUnits="userSpaceOnUse" x1="440.5706" y1="291.2751" x2="603.7158" y2="291.2751" gradientTransform="matrix(-1 0 0 -1 1314.9365 711.1236)">
				<stop  offset="0.0308" style="stop-color:#00FFFF"/>
				<stop  offset="0.5066" style="stop-color:#0000FF"/>
				<stop  offset="1" style="stop-color:#00D3FF"/>
			</linearGradient>
			<path style="fill:url(#SVGID_00000012431110833411247610000009862998762372226994_);" d="M843.02,383.55v1.1
				c-0.93,0-1.85,0.1-2.75,0.3c-0.9,0.2-1.7,0.47-2.4,0.8c-0.7,0.33-1.28,0.78-1.75,1.35c-0.47,0.57-0.7,1.22-0.7,1.95v36.4
				c0,0.8,0.25,1.46,0.75,2c0.5,0.53,1.13,0.96,1.9,1.3c0.77,0.33,1.62,0.58,2.55,0.75c0.93,0.17,1.87,0.25,2.8,0.25v1.1h-24.3v-1.1
				c0.87,0,1.77-0.08,2.7-0.25c0.93-0.17,1.8-0.43,2.6-0.8c0.8-0.37,1.45-0.82,1.95-1.35c0.5-0.53,0.75-1.2,0.75-2v-36.4
				c0-0.87-0.27-1.57-0.8-2.1c-0.53-0.53-1.2-0.97-2-1.3c-0.8-0.33-1.67-0.57-2.6-0.7c-0.93-0.13-1.8-0.2-2.6-0.2v-1.1H843.02z"/>
			
				<linearGradient id="SVGID_00000073702460117655992040000001746099072704673707_" gradientUnits="userSpaceOnUse" x1="440.5706" y1="291.2751" x2="603.7158" y2="291.2751" gradientTransform="matrix(-1 0 0 -1 1314.9365 711.1236)">
				<stop  offset="0.0308" style="stop-color:#00FFFF"/>
				<stop  offset="0.5066" style="stop-color:#0000FF"/>
				<stop  offset="1" style="stop-color:#00D3FF"/>
			</linearGradient>
			<path style="fill:url(#SVGID_00000073702460117655992040000001746099072704673707_);" d="M766.97,397.9
				c1.3-3.03,3.04-5.65,5.2-7.85c2.17-2.2,4.68-3.88,7.55-5.05c2.87-1.17,5.87-1.75,9-1.75c2.6,0,5.32,0.45,8.15,1.35
				c2.83,0.9,5.45,2.37,7.85,4.4c2.4,2.03,4.37,4.63,5.9,7.8c1.53,3.17,2.3,6.95,2.3,11.35c0,3.13-0.6,6.12-1.8,8.95
				c-1.2,2.83-2.88,5.33-5.05,7.5c-2.17,2.17-4.75,3.9-7.75,5.2s-6.3,1.95-9.9,1.95c-2.93,0-5.8-0.53-8.6-1.6s-5.3-2.62-7.5-4.65
				c-2.2-2.03-3.97-4.53-5.3-7.5c-1.33-2.97-2-6.35-2-10.15C765.02,404.25,765.67,400.93,766.97,397.9z M771.22,415
				c0.93,2.43,2.23,4.58,3.9,6.45c1.67,1.87,3.67,3.35,6,4.45c2.33,1.1,4.93,1.65,7.8,1.65c2.8,0,5.37-0.55,7.7-1.65
				c2.33-1.1,4.35-2.58,6.05-4.45c1.7-1.87,3.03-4.02,4-6.45c0.97-2.43,1.45-4.98,1.45-7.65c0-2.67-0.48-5.22-1.45-7.65
				c-0.97-2.43-2.32-4.57-4.05-6.4c-1.73-1.83-3.78-3.3-6.15-4.4c-2.37-1.1-4.95-1.65-7.75-1.65c-2.8,0-5.37,0.55-7.7,1.65
				c-2.33,1.1-4.33,2.57-6,4.4c-1.67,1.83-2.95,3.97-3.85,6.4c-0.9,2.43-1.35,4.98-1.35,7.65
				C769.82,410.01,770.29,412.56,771.22,415z"/>
		</g>
		<rect x="735.17" y="336.62" class="st2" width="139.19" height="166.46"/>
		<text transform="matrix(-1 0 0 -1 847.2188 383.5488)" class="st7 st4 st23">10</text>
	</g>
	<g>
		<g>
			
				<linearGradient id="SVGID_00000120547835412820138650000001802954296526833565_" gradientUnits="userSpaceOnUse" x1="550.7" y1="633.0643" x2="692.1621" y2="633.0643" gradientTransform="matrix(-1 0 0 -1 1314.9365 711.1236)">
				<stop  offset="0.0308" style="stop-color:#00FFFF"/>
				<stop  offset="0.5066" style="stop-color:#0000FF"/>
				<stop  offset="1" style="stop-color:#00D3FF"/>
			</linearGradient>
			<path style="fill:url(#SVGID_00000120547835412820138650000001802954296526833565_);" d="M678.92,53.11
				c1.17-2.43,2.73-4.53,4.7-6.3c1.97-1.77,4.29-3.12,6.95-4.05c2.67-0.93,5.5-1.4,8.5-1.4c2.33,0,4.68,0.35,7.05,1.05
				c2.37,0.7,4.5,1.77,6.4,3.2c1.9,1.43,3.43,3.17,4.6,5.2c1.17,2.03,1.75,4.28,1.75,6.75c0,2.07-0.43,3.97-1.3,5.7
				c-0.87,1.73-2,3.35-3.4,4.85c-1.4,1.5-2.95,2.88-4.65,4.15c-1.7,1.27-3.38,2.47-5.05,3.6c1.73,1.2,3.42,2.47,5.05,3.8
				c1.63,1.33,3.08,2.78,4.35,4.35c1.27,1.57,2.29,3.32,3.05,5.25c0.77,1.93,1.15,4.1,1.15,6.5c0,2.67-0.57,5.13-1.7,7.4
				c-1.13,2.27-2.63,4.23-4.5,5.9c-1.87,1.67-4,2.98-6.4,3.95c-2.4,0.97-4.83,1.45-7.3,1.45c-3.13,0-5.93-0.42-8.4-1.25
				c-2.47-0.83-4.55-1.95-6.25-3.35s-3.02-3.05-3.95-4.95c-0.93-1.9-1.4-3.92-1.4-6.05c0-2,0.42-3.85,1.25-5.55
				c0.83-1.7,1.95-3.3,3.35-4.8c1.4-1.5,3.02-2.9,4.85-4.2c1.83-1.3,3.72-2.55,5.65-3.75c-1.4-0.8-3.03-1.75-4.9-2.85
				c-1.87-1.1-3.62-2.45-5.25-4.05c-1.63-1.6-3.03-3.43-4.2-5.5c-1.17-2.07-1.75-4.43-1.75-7.1
				C677.17,58.19,677.76,55.54,678.92,53.11z M685.82,104.21c0.57,1.7,1.4,3.18,2.5,4.45c1.1,1.27,2.47,2.27,4.1,3
				c1.63,0.73,3.48,1.1,5.55,1.1c1.67,0,3.27-0.27,4.8-0.8c1.53-0.53,2.9-1.3,4.1-2.3c1.2-1,2.15-2.23,2.85-3.7
				c0.7-1.47,1.05-3.17,1.05-5.1c0-2.6-0.52-4.9-1.55-6.9c-1.03-2-2.35-3.78-3.95-5.35c-1.6-1.57-3.32-2.92-5.15-4.05
				c-1.83-1.13-3.55-2.17-5.15-3.1c-3.4,1.93-5.92,4.32-7.55,7.15c-1.63,2.83-2.45,6.25-2.45,10.25
				C684.97,100.73,685.26,102.51,685.82,104.21z M686.62,61.76c0.83,1.8,2,3.48,3.5,5.05c1.5,1.57,3.32,3.02,5.45,4.35
				c2.13,1.33,4.53,2.63,7.2,3.9c1.53-0.87,2.85-1.98,3.95-3.35c1.1-1.37,2.02-2.83,2.75-4.4c0.73-1.57,1.29-3.15,1.65-4.75
				c0.37-1.6,0.55-3.1,0.55-4.5c0-4.8-1.33-8.53-4-11.2c-2.67-2.67-6.07-4-10.2-4c-2.2,0-4.08,0.38-5.65,1.15
				c-1.57,0.77-2.82,1.75-3.75,2.95c-0.93,1.2-1.62,2.55-2.05,4.05s-0.65,3.02-0.65,4.55C685.37,57.89,685.79,59.96,686.62,61.76z"
				/>
		</g>
		<rect x="632.11" y="-24" class="st2" width="132.12" height="204.12"/>
		<text transform="matrix(-1 0 0 -1 722.4731 41.7598)" class="st3 st4 st23">8</text>
	</g>
	<g>
		<g>
			
				<linearGradient id="SVGID_00000106843523856867043470000003894576081693873595_" gradientUnits="userSpaceOnUse" x1="808.359" y1="87.6231" x2="946.0332" y2="87.6231" gradientTransform="matrix(-1 0 0 -1 1314.9365 711.1236)">
				<stop  offset="0.0308" style="stop-color:#00FFFF"/>
				<stop  offset="0.5066" style="stop-color:#0000FF"/>
				<stop  offset="1" style="stop-color:#00D3FF"/>
			</linearGradient>
			<path style="fill:url(#SVGID_00000106843523856867043470000003894576081693873595_);" d="M420.2,630.35
				c0.93-2.3,2.15-5.27,3.65-8.9c1.5-3.63,3.18-7.78,5.05-12.45c1.87-4.67,3.85-9.57,5.95-14.7c2.1-5.13,4.22-10.43,6.35-15.9
				c2.13-5.47,4.2-10.8,6.2-16l6.7,0.3c-0.33,0.67-1.12,2.23-2.35,4.7c-1.23,2.47-2.73,5.48-4.5,9.05c-1.77,3.57-3.72,7.5-5.85,11.8
				c-2.13,4.3-4.27,8.68-6.4,13.15c-2.13,4.46-4.18,8.83-6.15,13.1c-1.97,4.27-3.65,8.1-5.05,11.5h27.1c2.13,0,3.88-0.3,5.25-0.9
				c1.37-0.6,2.48-1.35,3.35-2.25c0.87-0.9,1.55-1.85,2.05-2.85s0.92-1.9,1.25-2.7l1.2,0.4l-6.5,16.8h-39
				C418.7,634.04,419.27,632.65,420.2,630.35z"/>
		</g>
		<rect x="377.83" y="510.05" class="st2" width="128.75" height="226.91"/>
		<text transform="matrix(-1 0 0 -1 464.4014 587.2017)" class="st10 st4 st23">7</text>
	</g>
	<g>
		<g>
			
				<linearGradient id="SVGID_00000086688367989445593790000016199376592562750088_" gradientUnits="userSpaceOnUse" x1="1005.1014" y1="629.1329" x2="1218.6517" y2="629.1329" gradientTransform="matrix(-1 0 0 -1 1314.9365 711.1236)">
				<stop  offset="0.0308" style="stop-color:#00FFFF"/>
				<stop  offset="0.5066" style="stop-color:#0000FF"/>
				<stop  offset="1" style="stop-color:#00D3FF"/>
			</linearGradient>
			<path style="fill:url(#SVGID_00000086688367989445593790000016199376592562750088_);" d="M230.46,45.69v1.1
				c-0.93,0-1.85,0.1-2.75,0.3c-0.9,0.2-1.7,0.47-2.4,0.8c-0.7,0.33-1.28,0.78-1.75,1.35c-0.47,0.57-0.7,1.22-0.7,1.95v36.4
				c0,0.8,0.25,1.47,0.75,2c0.5,0.53,1.13,0.97,1.9,1.3c0.77,0.33,1.62,0.58,2.55,0.75c0.93,0.17,1.87,0.25,2.8,0.25v1.1h-24.3v-1.1
				c0.87,0,1.77-0.08,2.7-0.25c0.93-0.17,1.8-0.43,2.6-0.8c0.8-0.37,1.45-0.82,1.95-1.35c0.5-0.53,0.75-1.2,0.75-2v-36.4
				c0-0.87-0.27-1.57-0.8-2.1c-0.53-0.53-1.2-0.97-2-1.3c-0.8-0.33-1.67-0.57-2.6-0.7c-0.93-0.13-1.8-0.2-2.6-0.2v-1.1H230.46z"/>
			
				<linearGradient id="SVGID_00000058575784533644911210000001347689634345328003_" gradientUnits="userSpaceOnUse" x1="1005.1014" y1="629.1329" x2="1218.6517" y2="629.1329" gradientTransform="matrix(-1 0 0 -1 1314.9365 711.1236)">
				<stop  offset="0.0308" style="stop-color:#00FFFF"/>
				<stop  offset="0.5066" style="stop-color:#0000FF"/>
				<stop  offset="1" style="stop-color:#00D3FF"/>
			</linearGradient>
			<path style="fill:url(#SVGID_00000058575784533644911210000001347689634345328003_);" d="M198.86,45.69v1.1
				c-0.93,0-1.85,0.1-2.75,0.3c-0.9,0.2-1.7,0.47-2.4,0.8c-0.7,0.33-1.28,0.78-1.75,1.35c-0.47,0.57-0.7,1.22-0.7,1.95v36.4
				c0,0.8,0.25,1.47,0.75,2c0.5,0.53,1.13,0.97,1.9,1.3c0.77,0.33,1.62,0.58,2.55,0.75c0.93,0.17,1.87,0.25,2.8,0.25v1.1h-24.3v-1.1
				c0.87,0,1.77-0.08,2.7-0.25c0.93-0.17,1.8-0.43,2.6-0.8c0.8-0.37,1.45-0.82,1.95-1.35c0.5-0.53,0.75-1.2,0.75-2v-36.4
				c0-0.87-0.27-1.57-0.8-2.1c-0.53-0.53-1.2-0.97-2-1.3c-0.8-0.33-1.67-0.57-2.6-0.7c-0.93-0.13-1.8-0.2-2.6-0.2v-1.1H198.86z"/>
		</g>
		<rect x="96.28" y="-43.7" class="st2" width="213.55" height="251.39"/>
		<text transform="matrix(-1 0 0 -1 234.6597 45.6904)" class="st3 st4 st23">11</text>
	</g>
	<g>
		<g>
			
				<linearGradient id="SVGID_00000140716217784774186820000005078467192057681833_" gradientUnits="userSpaceOnUse" x1="25.5853" y1="429.6008" x2="169.3955" y2="429.6008" gradientTransform="matrix(-1 0 0 -1 1314.9365 711.1236)">
				<stop  offset="0.0308" style="stop-color:#00FFFF"/>
				<stop  offset="0.5066" style="stop-color:#0000FF"/>
				<stop  offset="1" style="stop-color:#00D3FF"/>
			</linearGradient>
			<path style="fill:url(#SVGID_00000140716217784774186820000005078467192057681833_);" d="M1212.84,245.72v-23.1h8.8v23.1h29.4
				c0.47,0,0.78,0.07,0.95,0.2c0.17,0.13,0.08,0.47-0.25,1l-4.6,6.7l-31.2,39.9h-2.9v-40.1h-13.8v-7.7H1212.84z M1221.64,283.12
				l23.5-29.7h-23.5V283.12z"/>
		</g>
		<rect x="1159.03" y="197.73" class="st2" width="130.32" height="167.59"/>
		<text transform="matrix(-1 0 0 -1 1251.7402 245.2227)" class="st10 st4 st23">4</text>
	</g>
	<g>
		<g>
			
				<linearGradient id="SVGID_00000000944662259645930050000012156049283316339884_" gradientUnits="userSpaceOnUse" x1="1020.1317" y1="126.0329" x2="1185" y2="126.0329" gradientTransform="matrix(-1 0 0 -1 1314.9365 711.1236)">
				<stop  offset="0.0308" style="stop-color:#00FFFF"/>
				<stop  offset="0.5066" style="stop-color:#0000FF"/>
				<stop  offset="1" style="stop-color:#00D3FF"/>
			</linearGradient>
			<path style="fill:url(#SVGID_00000000944662259645930050000012156049283316339884_);" d="M193.42,554.54
				c2.7-5.37,6.17-10.17,10.4-14.4c4.23-4.23,8.92-7.82,14.05-10.75c5.13-2.93,10.13-5.03,15-6.3l0.6,1.5
				c-2.8,1.2-5.55,2.61-8.25,4.24c-2.7,1.63-5.28,3.61-7.75,5.94c-2.47,2.33-4.77,5.04-6.9,8.13c-2.13,3.09-4.07,6.57-5.8,10.43
				c1.47-0.57,2.88-0.95,4.25-1.14c1.37-0.19,2.82-0.29,4.35-0.29c3.47,0,6.55,0.56,9.25,1.7c2.7,1.13,5,2.68,6.9,4.65
				c1.9,1.96,3.35,4.28,4.35,6.95s1.5,5.53,1.5,8.6c0,3.13-0.58,6.1-1.75,8.9c-1.17,2.8-2.77,5.27-4.8,7.4
				c-2.03,2.13-4.45,3.83-7.25,5.1c-2.8,1.27-5.8,1.9-9,1.9c-3.27,0-6.32-0.68-9.15-2.05c-2.83-1.37-5.28-3.2-7.35-5.5
				c-2.07-2.3-3.7-4.98-4.9-8.05c-1.2-3.07-1.8-6.27-1.8-9.6C189.37,565.69,190.72,559.91,193.42,554.54z M199.47,582.29
				c0.53,2.47,1.38,4.67,2.55,6.6c1.17,1.93,2.62,3.5,4.35,4.7c1.73,1.2,3.8,1.8,6.2,1.8c4.27,0,7.68-1.5,10.25-4.5
				c2.57-3,3.85-7.2,3.85-12.6c0-2.73-0.32-5.53-0.95-8.4c-0.63-2.87-1.62-5.48-2.95-7.85c-1.33-2.37-3-4.32-5-5.85
				s-4.37-2.3-7.1-2.3c-1.4,0-2.67,0.17-3.8,0.5c-1.13,0.33-2.1,1-2.9,2c-2.13,2.73-3.55,5.63-4.25,8.7s-1.05,6.3-1.05,9.7
				C198.67,577.32,198.94,579.82,199.47,582.29z"/>
		</g>
		<rect x="129.94" y="497.06" class="st2" width="164.87" height="176.07"/>
		<text transform="matrix(-1 0 0 -1 237.9697 548.79)" class="st3 st4 st23">9</text>
	</g>
	<g>
		<g>
			
				<linearGradient id="SVGID_00000165943592442835845620000014708069498088534455_" gradientUnits="userSpaceOnUse" x1="144.2047" y1="561.8861" x2="281.4424" y2="561.8861" gradientTransform="matrix(-1 0 0 -1 1314.9365 711.1236)">
				<stop  offset="0.0308" style="stop-color:#00FFFF"/>
				<stop  offset="0.5066" style="stop-color:#0000FF"/>
				<stop  offset="1" style="stop-color:#00D3FF"/>
			</linearGradient>
			<path style="fill:url(#SVGID_00000165943592442835845620000014708069498088534455_);" d="M1089.59,102.64
				c1.6-3.07,3.77-5.68,6.5-7.85c2.73-2.17,5.87-3.85,9.4-5.05c3.53-1.2,7.27-1.8,11.2-1.8c0.93,0,1.92,0.13,2.95,0.4
				c1.03,0.27,1.97,0.65,2.8,1.15c0.83,0.5,1.48,1.13,1.95,1.9c0.47,0.77,0.7,1.68,0.7,2.75c0,1.07-0.25,1.97-0.75,2.7
				c-0.5,0.73-1.42,1.1-2.75,1.1c-1.13,0-2.1-0.38-2.9-1.13s-1.6-1.59-2.4-2.52c-0.8-0.92-1.7-1.76-2.7-2.52s-2.2-1.13-3.6-1.13
				c-0.53,0-1.58,0.22-3.15,0.65c-1.57,0.43-3.2,1.25-4.9,2.45c-1.7,1.2-3.2,2.88-4.5,5.04c-1.3,2.16-1.95,5.01-1.95,8.54
				c0,2.4,0.48,4.53,1.45,6.39c0.97,1.86,2.27,3.48,3.9,4.84c1.63,1.36,3.53,2.41,5.7,3.15c2.17,0.73,4.45,1.1,6.85,1.1h1.3l0.3,0.6
				c-1.73,1.33-3.58,2.76-5.55,4.29c-1.97,1.53-3.77,3.2-5.4,4.99c-1.63,1.8-2.98,3.73-4.05,5.79c-1.07,2.06-1.6,4.33-1.6,6.79
				c0,2.73,1.02,4.89,3.05,6.49c2.03,1.6,4.52,2.4,7.45,2.4c2.87,0,5.27-0.45,7.2-1.35s3.63-2.48,5.1-4.75l0.9,0.5
				c-0.73,1.6-1.62,3.15-2.65,4.65c-1.03,1.5-2.22,2.85-3.55,4.05c-1.33,1.2-2.85,2.17-4.55,2.9c-1.7,0.73-3.62,1.1-5.75,1.1
				c-4.53,0-8.25-1.18-11.15-3.55c-2.9-2.37-4.35-5.45-4.35-9.25c0-1.73,0.33-3.37,1-4.9c0.67-1.53,1.62-3.03,2.85-4.5
				c1.23-1.47,2.7-2.93,4.4-4.4c1.7-1.47,3.58-3,5.65-4.6c-2.2-0.47-4.32-1.2-6.35-2.2c-2.03-1-3.83-2.25-5.4-3.75
				c-1.56-1.5-2.8-3.22-3.7-5.15c-0.9-1.93-1.35-3.97-1.35-6.1C1087.19,109.1,1087.99,105.7,1089.59,102.64z"/>
		</g>
		<rect x="1038.06" y="60.73" class="st2" width="132.68" height="177.01"/>
		<text transform="matrix(-1 0 0 -1 1124.1934 112.9375)" class="st3 st4 st23">3</text>
	</g>
	<g>
		<g>
			
				<linearGradient id="SVGID_00000113341877591854538800000017634086725162987407_" gradientUnits="userSpaceOnUse" x1="471.5234" y1="120.3388" x2="633.3577" y2="120.3388" gradientTransform="matrix(-1 0 0 -1 1314.9365 711.1236)">
				<stop  offset="0.0308" style="stop-color:#00FFFF"/>
				<stop  offset="0.5066" style="stop-color:#0000FF"/>
				<stop  offset="1" style="stop-color:#00D3FF"/>
			</linearGradient>
			<path style="fill:url(#SVGID_00000113341877591854538800000017634086725162987407_);" d="M745.45,600.34
				c0.73-2.3,1.57-5.02,2.5-8.15h23.9l1.7-18.6c-1.2,0.2-2.31,0.35-3.35,0.45c-1.03,0.1-2.21,0.15-3.55,0.15
				c-3.6,0-6.77-0.53-9.5-1.6c-2.73-1.07-5-2.52-6.8-4.35c-1.8-1.83-3.17-3.98-4.1-6.45s-1.4-5.07-1.4-7.8c0-3.6,0.72-6.9,2.15-9.9
				s3.28-5.58,5.55-7.75c2.27-2.17,4.8-3.85,7.6-5.05c2.8-1.2,5.53-1.8,8.2-1.8c1.67,0,3.32,0.15,4.95,0.45
				c1.63,0.3,3.1,0.79,4.4,1.45c1.3,0.67,2.37,1.52,3.2,2.55c0.83,1.04,1.25,2.32,1.25,3.85c0,1.07-0.33,1.98-1,2.75
				c-0.67,0.77-1.53,1.15-2.6,1.15c-1.6,0-2.77-0.52-3.5-1.55c-0.73-1.03-1.45-2.17-2.15-3.4c-0.7-1.23-1.57-2.37-2.6-3.4
				c-1.03-1.03-2.65-1.55-4.85-1.55c-2.2,0-4.08,0.54-5.65,1.6c-1.56,1.07-2.87,2.45-3.9,4.15c-1.03,1.7-1.78,3.63-2.25,5.8
				c-0.47,2.17-0.7,4.32-0.7,6.45c0,3,0.4,5.47,1.2,7.4s1.83,3.5,3.1,4.7c1.27,1.2,2.67,2.07,4.2,2.6c1.54,0.53,3.04,0.8,4.5,0.8
				c1.54,0,2.85-0.15,3.95-0.45c1.1-0.3,2.02-0.73,2.75-1.3c0.73-0.57,1.37-1.27,1.9-2.1c0.54-0.83,1-1.82,1.4-2.95l1,0.2l-4.4,43.1
				h-21.3c-2.2,0-3.67,0.35-4.4,1.05c-0.73,0.7-1.4,1.75-2,3.15l-1.2-0.4C744.11,604.39,744.71,602.64,745.45,600.34z"/>
		</g>
		<rect x="681.58" y="505.11" class="st2" width="161.83" height="171.35"/>
		<text transform="matrix(-1 0 0 -1 782.1455 554.4858)" class="st7 st4 st23">5</text>
	</g>
	<g>
		<g>
			
				<linearGradient id="SVGID_00000134217256910893705060000010919582581206122411_" gradientUnits="userSpaceOnUse" x1="1005.6124" y1="370.3767" x2="1173.6592" y2="370.3767" gradientTransform="matrix(-1 0 0 -1 1314.9365 711.1236)">
				<stop  offset="0.0308" style="stop-color:#00FFFF"/>
				<stop  offset="0.5066" style="stop-color:#0000FF"/>
				<stop  offset="1" style="stop-color:#00D3FF"/>
			</linearGradient>
			<path style="fill:url(#SVGID_00000134217256910893705060000010919582581206122411_);" d="M263.38,304.45v1.1
				c-0.93,0-1.85,0.1-2.75,0.3c-0.9,0.2-1.7,0.47-2.4,0.8c-0.7,0.33-1.28,0.78-1.75,1.35c-0.47,0.57-0.7,1.22-0.7,1.95v36.4
				c0,0.8,0.25,1.47,0.75,2c0.5,0.53,1.13,0.97,1.9,1.3c0.77,0.33,1.62,0.58,2.55,0.75c0.93,0.17,1.87,0.25,2.8,0.25v1.1h-24.3v-1.1
				c0.87,0,1.77-0.08,2.7-0.25c0.93-0.17,1.8-0.43,2.6-0.8c0.8-0.37,1.45-0.82,1.95-1.35c0.5-0.53,0.75-1.2,0.75-2v-36.4
				c0-0.87-0.27-1.57-0.8-2.1c-0.53-0.53-1.2-0.97-2-1.3c-0.8-0.33-1.67-0.57-2.6-0.7c-0.93-0.13-1.8-0.2-2.6-0.2v-1.1H263.38z"/>
			
				<linearGradient id="SVGID_00000124880759545479451610000009296343238019895968_" gradientUnits="userSpaceOnUse" x1="1005.6124" y1="370.3767" x2="1173.6592" y2="370.3767" gradientTransform="matrix(-1 0 0 -1 1314.9365 711.1236)">
				<stop  offset="0.0308" style="stop-color:#00FFFF"/>
				<stop  offset="0.5066" style="stop-color:#0000FF"/>
				<stop  offset="1" style="stop-color:#00D3FF"/>
			</linearGradient>
			<path style="fill:url(#SVGID_00000124880759545479451610000009296343238019895968_);" d="M197.28,304.45h34.1l0.3,0.8
				c-2.27,1.93-4.73,4.08-7.4,6.45c-2.67,2.37-5.17,4.85-7.5,7.45c-2.33,2.6-4.28,5.25-5.85,7.95c-1.57,2.7-2.35,5.28-2.35,7.75
				c0,1.33,0.2,2.65,0.6,3.95c0.4,1.3,0.98,2.45,1.75,3.45c0.77,1,1.75,1.8,2.95,2.4c1.2,0.6,2.6,0.9,4.2,0.9
				c3.4,0,6.28-0.92,8.65-2.75c2.37-1.83,4.35-4.05,5.95-6.65l1,0.6c-0.73,1.33-1.77,2.92-3.1,4.75c-1.33,1.83-2.92,3.58-4.75,5.25
				c-1.83,1.67-3.85,3.08-6.05,4.25c-2.2,1.17-4.53,1.75-7,1.75c-3.33,0-6.12-1.03-8.35-3.1c-2.23-2.07-3.35-4.9-3.35-8.5
				c0-2.8,0.62-5.47,1.85-8c1.23-2.53,2.8-4.95,4.7-7.25c1.9-2.3,4-4.52,6.3-6.65c2.3-2.13,4.52-4.2,6.65-6.2v-0.2h-18
				c-1.8,0-3.22,0.13-4.25,0.4c-1.03,0.27-1.87,0.65-2.5,1.15c-0.63,0.5-1.13,1.07-1.5,1.7c-0.37,0.63-0.72,1.32-1.05,2.05l-1-0.3
				L197.28,304.45z"/>
		</g>
		<rect x="150.63" y="236.18" class="st2" width="158.69" height="209.13"/>
		<text transform="matrix(-1 0 0 -1 267.5762 304.4468)" class="st7 st4 st23">12</text>
	</g>
	<g>
		<g>
			
				<linearGradient id="SVGID_00000034774353571853282190000018243966406427657123_" gradientUnits="userSpaceOnUse" x1="1134.6096" y1="405.8614" x2="1278.4199" y2="405.8614" gradientTransform="matrix(-1 0 0 -1 1314.9365 711.1236)">
				<stop  offset="0.0308" style="stop-color:#00FFFF"/>
				<stop  offset="0.5066" style="stop-color:#0000FF"/>
				<stop  offset="1" style="stop-color:#00D3FF"/>
			</linearGradient>
			<path style="fill:url(#SVGID_00000034774353571853282190000018243966406427657123_);" d="M103.82,269.46v-23.1h8.8v23.1h29.4
				c0.47,0,0.78,0.07,0.95,0.2c0.17,0.13,0.08,0.47-0.25,1l-4.6,6.7l-31.2,39.9h-2.9v-40.1h-13.8v-7.7H103.82z M112.62,306.86
				l23.5-29.7h-23.5V306.86z"/>
		</g>
		<rect x="50.01" y="221.47" class="st2" width="130.32" height="167.59"/>
		<text transform="matrix(-1 0 0 -1 142.7158 268.9619)" class="st10 st4 st23">4</text>
	</g>
	<g>
		<g>
			
				<linearGradient id="SVGID_00000099625048216053219290000004579484203031933570_" gradientUnits="userSpaceOnUse" x1="845.5983" y1="636.7935" x2="1086.7764" y2="636.7935">
				<stop  offset="0.0308" style="stop-color:#00FFFF"/>
				<stop  offset="0.5066" style="stop-color:#0000FF"/>
				<stop  offset="1" style="stop-color:#00D3FF"/>
			</linearGradient>
			<path style="fill:url(#SVGID_00000099625048216053219290000004579484203031933570_);" d="M952.19,684.79v48.05h-18.3v-48.05
				h-61.15c-0.97,0-1.63-0.14-1.98-0.42c-0.34-0.28-0.17-0.97,0.52-2.08l9.57-13.94l64.9-82.99h6.03v83.41h28.7v16.02H952.19z
				 M933.89,607l-48.88,61.78h48.88V607z"/>
		</g>
		<rect x="845.6" y="521.32" class="st2" width="165.97" height="178.01"/>
		<text transform="matrix(1 0 0 1 871.2811 685.8289)" class="st10 st4 st5">4</text>
	</g>
	<g>
		<g>
			
				<linearGradient id="SVGID_00000098907059728890172950000016907604655628121246_" gradientUnits="userSpaceOnUse" x1="248.5982" y1="649.7925" x2="489.7764" y2="649.7925">
				<stop  offset="0.0308" style="stop-color:#00FFFF"/>
				<stop  offset="0.5066" style="stop-color:#0000FF"/>
				<stop  offset="1" style="stop-color:#00D3FF"/>
			</linearGradient>
			<path style="fill:url(#SVGID_00000098907059728890172950000016907604655628121246_);" d="M355.19,697.79v48.05h-18.3v-48.05
				h-61.15c-0.97,0-1.63-0.14-1.98-0.42c-0.34-0.28-0.17-0.97,0.52-2.08l9.57-13.94l64.9-82.99h6.03v83.41h28.7v16.02H355.19z
				 M336.89,620l-48.88,61.78h48.88V620z"/>
		</g>
		<rect x="248.6" y="534.32" class="st2" width="165.97" height="178.01"/>
		<text transform="matrix(1 0 0 1 274.281 698.8285)" class="st10 st4 st5">4</text>
	</g>
	<g>
		<g>
			
				<linearGradient id="SVGID_00000116207319564596607750000000952991468072799396_" gradientUnits="userSpaceOnUse" x1="274.7808" y1="428.7935" x2="564.9365" y2="428.7935">
				<stop  offset="0.0308" style="stop-color:#00FFFF"/>
				<stop  offset="0.5066" style="stop-color:#0000FF"/>
				<stop  offset="1" style="stop-color:#00D3FF"/>
			</linearGradient>
			<path style="fill:url(#SVGID_00000116207319564596607750000000952991468072799396_);" d="M372.12,477.83h-70.93l-0.62-1.66
				c4.71-4.02,9.84-8.49,15.39-13.42c5.54-4.92,10.74-10.09,15.6-15.5c4.85-5.41,8.91-10.92,12.17-16.54
				c3.26-5.62,4.89-10.99,4.89-16.12c0-2.77-0.42-5.51-1.25-8.22c-0.83-2.7-2.05-5.1-3.64-7.18c-1.6-2.08-3.64-3.74-6.14-4.99
				c-2.5-1.25-5.41-1.87-8.74-1.87c-7.07,0-13.07,1.91-17.99,5.72c-4.92,3.82-9.05,8.42-12.38,13.83l-2.08-1.25
				c1.52-2.77,3.67-6.06,6.45-9.88c2.77-3.81,6.06-7.45,9.88-10.92c3.81-3.46,8.01-6.41,12.58-8.84c4.58-2.42,9.43-3.64,14.56-3.64
				c6.93,0,12.72,2.15,17.37,6.45c4.64,4.3,6.97,10.19,6.97,17.68c0,5.82-1.28,11.37-3.85,16.64c-2.57,5.27-5.82,10.3-9.78,15.08
				c-3.95,4.78-8.32,9.4-13.1,13.83c-4.78,4.44-9.4,8.74-13.83,12.9v0.42h37.44c3.74,0,6.69-0.28,8.84-0.83
				c2.15-0.55,3.88-1.35,5.2-2.39c1.32-1.04,2.36-2.22,3.12-3.54c0.76-1.32,1.49-2.74,2.18-4.26l2.08,0.62L372.12,477.83z"/>
			
				<linearGradient id="SVGID_00000005238366166376723620000003214714180912380607_" gradientUnits="userSpaceOnUse" x1="274.7808" y1="428.7935" x2="564.9365" y2="428.7935">
				<stop  offset="0.0308" style="stop-color:#00FFFF"/>
				<stop  offset="0.5066" style="stop-color:#0000FF"/>
				<stop  offset="1" style="stop-color:#00D3FF"/>
			</linearGradient>
			<path style="fill:url(#SVGID_00000005238366166376723620000003214714180912380607_);" d="M458.64,382.46
				c-1.53,4.78-3.26,10.44-5.2,16.95h-49.71l-3.54,38.69c2.5-0.42,4.82-0.73,6.97-0.94c2.15-0.21,4.61-0.31,7.38-0.31
				c7.49,0,14.07,1.11,19.76,3.33c5.68,2.22,10.4,5.24,14.14,9.05c3.74,3.82,6.58,8.29,8.53,13.42c1.94,5.13,2.91,10.54,2.91,16.22
				c0,7.49-1.49,14.35-4.47,20.59c-2.98,6.24-6.83,11.61-11.54,16.12c-4.72,4.5-9.98,8.01-15.81,10.5
				c-5.82,2.5-11.51,3.74-17.06,3.74c-3.47,0-6.9-0.31-10.3-0.94c-3.4-0.62-6.45-1.63-9.15-3.02c-2.7-1.39-4.92-3.16-6.66-5.3
				c-1.74-2.15-2.6-4.82-2.6-8.01c0-2.22,0.69-4.13,2.08-5.72c1.38-1.6,3.19-2.39,5.41-2.39c3.33,0,5.75,1.07,7.28,3.22
				c1.52,2.15,3.02,4.5,4.47,7.07c1.46,2.56,3.26,4.92,5.41,7.07c2.15,2.15,5.51,3.22,10.09,3.22c4.58,0,8.49-1.11,11.75-3.33
				c3.26-2.22,5.96-5.1,8.11-8.63c2.15-3.54,3.71-7.56,4.68-12.06c0.97-4.51,1.46-8.98,1.46-13.42c0-6.24-0.83-11.37-2.5-15.39
				c-1.66-4.02-3.82-7.28-6.45-9.78c-2.64-2.5-5.55-4.3-8.74-5.41c-3.19-1.11-6.31-1.66-9.36-1.66c-3.19,0-5.93,0.31-8.22,0.94
				s-4.2,1.53-5.72,2.7c-1.53,1.18-2.84,2.64-3.95,4.37c-1.11,1.74-2.08,3.78-2.91,6.14l-2.08-0.42l9.15-89.65h44.3
				c4.58,0,7.62-0.73,9.15-2.18c1.52-1.46,2.91-3.64,4.16-6.55l2.5,0.83C461.42,374.04,460.17,377.68,458.64,382.46z"/>
		</g>
		<rect x="274.78" y="311.32" class="st2" width="206.11" height="182"/>
		<text transform="matrix(1 0 0 1 291.6209 477.8291)" class="st7 st4 st5">25</text>
	</g>
	<g>
		<g>
			
				<linearGradient id="SVGID_00000018212823321994015640000005649337223130317981_" gradientUnits="userSpaceOnUse" x1="-36.8652" y1="626.3306" x2="102.3652" y2="626.3306" gradientTransform="matrix(-1 0 0 -1 1314.9365 711.1236)">
				<stop  offset="0.0308" style="stop-color:#00FFFF"/>
				<stop  offset="0.5066" style="stop-color:#0000FF"/>
				<stop  offset="1" style="stop-color:#00D3FF"/>
			</linearGradient>
			<path style="fill:url(#SVGID_00000018212823321994015640000005649337223130317981_);" d="M1267.87,63.09
				c1.13-2.87,2.72-5.4,4.75-7.6s4.48-3.92,7.35-5.15c2.87-1.23,6.03-1.85,9.5-1.85c3.07,0,5.98,0.65,8.75,1.95
				c2.77,1.3,5.18,3.1,7.25,5.4c2.07,2.3,3.7,4.97,4.9,8c1.2,3.03,1.8,6.18,1.8,9.45c0,4-0.67,7.83-2,11.5
				c-1.33,3.67-3.15,7.13-5.45,10.4c-2.3,3.27-4.95,6.32-7.95,9.15c-3,2.83-6.17,5.35-9.5,7.55c-3.33,2.2-6.7,4.1-10.1,5.7
				c-3.4,1.6-6.67,2.83-9.8,3.7l-0.8-1.2c2.6-1.13,5.22-2.55,7.85-4.25c2.63-1.7,5.22-3.7,7.75-6c2.54-2.3,4.92-4.9,7.15-7.8
				c2.23-2.9,4.25-6.12,6.05-9.65c-1.13,0.33-2.22,0.58-3.25,0.75c-1.03,0.17-2.32,0.25-3.85,0.25c-3.33,0-6.35-0.55-9.05-1.65
				c-2.7-1.1-5.02-2.62-6.95-4.55c-1.93-1.93-3.43-4.18-4.5-6.75c-1.07-2.57-1.6-5.32-1.6-8.25
				C1266.17,68.99,1266.74,65.96,1267.87,63.09z M1276.08,76.34c0.61,2.77,1.53,5.27,2.77,7.5c1.24,2.23,2.85,4.07,4.83,5.5
				c1.98,1.43,4.35,2.15,7.1,2.15c1.14,0,2.18-0.15,3.12-0.45c0.94-0.3,1.78-0.85,2.52-1.65c2.62-2.87,4.4-6.12,5.34-9.75
				c0.94-3.63,1.41-7.25,1.41-10.85c0-6-1.26-10.65-3.78-13.95c-2.52-3.3-5.93-4.95-10.22-4.95c-4.09,0-7.45,1.52-10.07,4.55
				c-2.62,3.03-3.93,7.58-3.93,13.65C1275.17,70.83,1275.47,73.58,1276.08,76.34z"/>
		</g>
		<rect x="1226.74" y="3.45" class="st2" width="125.06" height="162.69"/>
		<text transform="matrix(-1 0 0 -1 1314.8706 48.4937)" class="st10 st4 st23">6</text>
	</g>
	<g>
		<g>
			
				<linearGradient id="SVGID_00000114793170503927494820000008851890797453217206_" gradientUnits="userSpaceOnUse" x1="20.8322" y1="242.3306" x2="182.6665" y2="242.3306" gradientTransform="matrix(-1 0 0 -1 1314.9365 711.1236)">
				<stop  offset="0.0308" style="stop-color:#00FFFF"/>
				<stop  offset="0.5066" style="stop-color:#0000FF"/>
				<stop  offset="1" style="stop-color:#00D3FF"/>
			</linearGradient>
			<path style="fill:url(#SVGID_00000114793170503927494820000008851890797453217206_);" d="M1196.14,478.34
				c0.73-2.3,1.57-5.02,2.5-8.15h23.9l1.7-18.6c-1.2,0.2-2.31,0.35-3.35,0.45c-1.03,0.1-2.21,0.15-3.55,0.15
				c-3.6,0-6.77-0.53-9.5-1.6c-2.73-1.07-5-2.52-6.8-4.35c-1.8-1.83-3.17-3.98-4.1-6.45s-1.4-5.07-1.4-7.8c0-3.6,0.72-6.9,2.15-9.9
				s3.28-5.58,5.55-7.75c2.27-2.17,4.8-3.85,7.6-5.05c2.8-1.2,5.53-1.8,8.2-1.8c1.67,0,3.32,0.15,4.95,0.45
				c1.63,0.3,3.1,0.79,4.4,1.45c1.3,0.67,2.37,1.52,3.2,2.55c0.83,1.04,1.25,2.32,1.25,3.85c0,1.07-0.33,1.98-1,2.75
				c-0.67,0.77-1.53,1.15-2.6,1.15c-1.6,0-2.77-0.52-3.5-1.55c-0.73-1.03-1.45-2.17-2.15-3.4c-0.7-1.23-1.57-2.37-2.6-3.4
				c-1.03-1.03-2.65-1.55-4.85-1.55c-2.2,0-4.08,0.54-5.65,1.6c-1.56,1.07-2.87,2.45-3.9,4.15c-1.03,1.7-1.78,3.63-2.25,5.8
				c-0.47,2.17-0.7,4.32-0.7,6.45c0,3,0.4,5.47,1.2,7.4s1.83,3.5,3.1,4.7c1.27,1.2,2.67,2.07,4.2,2.6c1.54,0.53,3.04,0.8,4.5,0.8
				c1.54,0,2.85-0.15,3.95-0.45c1.1-0.3,2.02-0.73,2.75-1.3c0.73-0.57,1.37-1.27,1.9-2.1c0.54-0.83,1-1.82,1.4-2.95l1,0.2l-4.4,43.1
				h-21.3c-2.2,0-3.67,0.35-4.4,1.05c-0.73,0.7-1.4,1.75-2,3.15l-1.2-0.4C1194.8,482.39,1195.4,480.64,1196.14,478.34z"/>
		</g>
		<rect x="1132.27" y="383.12" class="st2" width="161.83" height="171.35"/>
		<text transform="matrix(-1 0 0 -1 1232.8369 432.4937)" class="st7 st4 st23">5</text>
	</g>
	<g>
		<g>
			
				<linearGradient id="SVGID_00000173127472712654642880000008038009176390961079_" gradientUnits="userSpaceOnUse" x1="580.2838" y1="319.7932" x2="798.0908" y2="319.7932">
				<stop  offset="0.0308" style="stop-color:#00FFFF"/>
				<stop  offset="0.5066" style="stop-color:#0000FF"/>
				<stop  offset="1" style="stop-color:#00D3FF"/>
			</linearGradient>
			<path style="fill:url(#SVGID_00000173127472712654642880000008038009176390961079_);" d="M687.01,368.83h-70.93l-0.62-1.66
				c4.71-4.02,9.84-8.49,15.39-13.42c5.54-4.92,10.74-10.09,15.6-15.5c4.85-5.41,8.91-10.92,12.17-16.54
				c3.26-5.62,4.89-10.99,4.89-16.12c0-2.77-0.42-5.51-1.25-8.22c-0.83-2.7-2.05-5.1-3.64-7.18c-1.6-2.08-3.64-3.74-6.14-4.99
				c-2.5-1.25-5.41-1.87-8.74-1.87c-7.07,0-13.07,1.91-17.99,5.72c-4.92,3.82-9.05,8.42-12.38,13.83l-2.08-1.25
				c1.52-2.77,3.67-6.06,6.45-9.88c2.77-3.81,6.06-7.45,9.88-10.92c3.81-3.46,8.01-6.41,12.58-8.84c4.58-2.42,9.43-3.64,14.56-3.64
				c6.93,0,12.72,2.15,17.37,6.45c4.64,4.3,6.97,10.19,6.97,17.68c0,5.82-1.28,11.37-3.85,16.64c-2.57,5.27-5.82,10.3-9.78,15.08
				c-3.95,4.78-8.32,9.4-13.1,13.83c-4.78,4.44-9.4,8.74-13.83,12.9v0.42h37.44c3.74,0,6.69-0.28,8.84-0.83
				c2.15-0.55,3.88-1.35,5.2-2.39c1.32-1.04,2.36-2.22,3.12-3.54c0.76-1.32,1.49-2.74,2.18-4.26l2.08,0.62L687.01,368.83z"/>
		</g>
		<rect x="580.28" y="200.1" class="st2" width="143.15" height="186.44"/>
		<text transform="matrix(1 0 0 1 606.5174 368.8287)" class="st3 st4 st5">2</text>
	</g>
	<g>
		<g>
			
				<linearGradient id="SVGID_00000176005368417631814940000011438410050864066692_" gradientUnits="userSpaceOnUse" x1="969.9084" y1="504.7932" x2="1196.4658" y2="504.7932">
				<stop  offset="0.0308" style="stop-color:#00FFFF"/>
				<stop  offset="0.5066" style="stop-color:#0000FF"/>
				<stop  offset="1" style="stop-color:#00D3FF"/>
			</linearGradient>
			<path style="fill:url(#SVGID_00000176005368417631814940000011438410050864066692_);" d="M1085.18,575.25
				c-3.33,6.38-7.84,11.82-13.52,16.33c-5.69,4.5-12.2,8.01-19.55,10.5c-7.35,2.5-15.12,3.74-23.3,3.74c-1.94,0-3.99-0.28-6.14-0.83
				c-2.15-0.56-4.09-1.35-5.82-2.39c-1.74-1.04-3.09-2.36-4.06-3.95c-0.97-1.6-1.46-3.5-1.46-5.72c0-2.22,0.52-4.09,1.56-5.62
				c1.04-1.53,2.94-2.29,5.72-2.29c2.36,0,4.37,0.79,6.03,2.36c1.66,1.57,3.33,3.31,4.99,5.23c1.66,1.91,3.54,3.66,5.62,5.23
				s4.58,2.36,7.49,2.36c1.11,0,3.29-0.45,6.55-1.35c3.26-0.9,6.66-2.6,10.19-5.09c3.54-2.49,6.66-5.99,9.36-10.49
				c2.7-4.5,4.06-10.42,4.06-17.75c0-4.99-1.01-9.42-3.02-13.29c-2.01-3.87-4.72-7.23-8.11-10.07c-3.4-2.84-7.35-5.02-11.86-6.54
				c-4.51-1.52-9.26-2.29-14.25-2.29h-2.7l-0.62-1.25c3.6-2.77,7.45-5.74,11.54-8.93c4.09-3.18,7.83-6.65,11.23-10.38
				c3.4-3.74,6.2-7.75,8.42-12.05c2.22-4.29,3.33-9,3.33-14.12c0-5.67-2.12-10.18-6.34-13.5c-4.23-3.32-9.4-4.99-15.5-4.99
				c-5.96,0-10.96,0.94-14.98,2.81c-4.02,1.87-7.56,5.17-10.61,9.88l-1.87-1.04c1.52-3.33,3.36-6.55,5.51-9.67
				c2.15-3.12,4.61-5.93,7.38-8.42c2.77-2.5,5.93-4.5,9.46-6.03c3.54-1.52,7.52-2.29,11.96-2.29c9.43,0,17.16,2.46,23.19,7.38
				c6.03,4.92,9.05,11.34,9.05,19.24c0,3.61-0.7,7-2.08,10.19c-1.39,3.19-3.36,6.31-5.93,9.36c-2.57,3.05-5.62,6.1-9.15,9.15
				c-3.54,3.05-7.46,6.24-11.75,9.57c4.58,0.97,8.98,2.5,13.21,4.58c4.23,2.08,7.97,4.68,11.23,7.8c3.25,3.12,5.82,6.69,7.7,10.71
				c1.88,4.02,2.81,8.25,2.81,12.69C1090.17,561.8,1088.51,568.87,1085.18,575.25z"/>
		</g>
		<rect x="969.91" y="384.32" class="st2" width="168.97" height="188.01"/>
		<text transform="matrix(1 0 0 1 1013.2108 553.8288)" class="st3 st4 st5">3</text>
	</g>
	<g>
		<g>
			
				<linearGradient id="SVGID_00000183934866630326247930000011707174870651564935_" gradientUnits="userSpaceOnUse" x1="799.1246" y1="231.7742" x2="949.3953" y2="231.7742">
				<stop  offset="0.0308" style="stop-color:#00FFFF"/>
				<stop  offset="0.5066" style="stop-color:#0000FF"/>
				<stop  offset="1" style="stop-color:#00D3FF"/>
			</linearGradient>
			<path style="fill:url(#SVGID_00000183934866630326247930000011707174870651564935_);" d="M843.72,260.09v-0.86
				c0.73,0,1.44-0.08,2.14-0.23c0.7-0.16,1.33-0.36,1.87-0.62c0.55-0.26,1-0.61,1.37-1.05c0.36-0.44,0.55-0.95,0.55-1.52v-28.39
				c0-0.62-0.2-1.14-0.58-1.56c-0.39-0.42-0.88-0.75-1.48-1.01c-0.6-0.26-1.26-0.45-1.99-0.58c-0.73-0.13-1.46-0.2-2.18-0.2v-0.86
				h18.95v0.86c-0.68,0-1.38,0.07-2.11,0.2c-0.73,0.13-1.4,0.34-2.03,0.62c-0.62,0.29-1.13,0.64-1.52,1.05
				c-0.39,0.42-0.58,0.94-0.58,1.56v28.39c0,0.68,0.21,1.22,0.62,1.64c0.42,0.42,0.94,0.75,1.56,1.01c0.62,0.26,1.3,0.44,2.03,0.55
				c0.73,0.1,1.4,0.16,2.03,0.16v0.86H843.72z"/>
			
				<linearGradient id="SVGID_00000057150370792758821660000004375967805942321070_" gradientUnits="userSpaceOnUse" x1="799.1246" y1="231.7742" x2="949.3953" y2="231.7742">
				<stop  offset="0.0308" style="stop-color:#00FFFF"/>
				<stop  offset="0.5066" style="stop-color:#0000FF"/>
				<stop  offset="1" style="stop-color:#00D3FF"/>
			</linearGradient>
			<path style="fill:url(#SVGID_00000057150370792758821660000004375967805942321070_);" d="M895.44,259.7v18.02h-6.86V259.7h-22.93
				c-0.36,0-0.61-0.05-0.74-0.16c-0.13-0.1-0.07-0.36,0.19-0.78l3.59-5.23l24.34-31.12h2.26v31.28h10.76v6.01H895.44z
				 M888.57,230.53l-18.33,23.17h18.33V230.53z"/>
		</g>
		<rect x="799.12" y="144.87" class="st2" width="150.27" height="173.81"/>
		<text transform="matrix(1 0 0 1 840.4476 260.088)" class="st7 st4 st49">14</text>
	</g>
	<g>
		<g>
			
				<linearGradient id="SVGID_00000050641047939748261140000015185319405882896812_" gradientUnits="userSpaceOnUse" x1="561.1245" y1="87.7742" x2="711.3951" y2="87.7742">
				<stop  offset="0.0308" style="stop-color:#00FFFF"/>
				<stop  offset="0.5066" style="stop-color:#0000FF"/>
				<stop  offset="1" style="stop-color:#00D3FF"/>
			</linearGradient>
			<path style="fill:url(#SVGID_00000050641047939748261140000015185319405882896812_);" d="M647.8,124.12
				c-1.25,2.39-2.94,4.43-5.07,6.12c-2.13,1.69-4.58,3-7.33,3.94c-2.76,0.94-5.67,1.4-8.74,1.4c-0.73,0-1.5-0.1-2.3-0.31
				c-0.81-0.21-1.53-0.51-2.18-0.9c-0.65-0.39-1.16-0.88-1.52-1.48c-0.36-0.6-0.55-1.31-0.55-2.15c0-0.83,0.2-1.53,0.58-2.11
				c0.39-0.57,1.1-0.86,2.15-0.86c0.88,0,1.64,0.29,2.26,0.88s1.25,1.24,1.87,1.96c0.62,0.72,1.33,1.37,2.11,1.96
				c0.78,0.59,1.72,0.88,2.81,0.88c0.42,0,1.23-0.17,2.46-0.51c1.22-0.34,2.5-0.98,3.82-1.91c1.33-0.93,2.5-2.25,3.51-3.93
				c1.01-1.69,1.52-3.91,1.52-6.66c0-1.87-0.38-3.53-1.13-4.98c-0.75-1.45-1.77-2.71-3.04-3.78c-1.27-1.06-2.76-1.88-4.45-2.45
				c-1.69-0.57-3.47-0.86-5.34-0.86h-1.01l-0.23-0.47c1.35-1.04,2.79-2.15,4.33-3.35c1.53-1.19,2.94-2.49,4.21-3.89
				c1.27-1.4,2.33-2.91,3.16-4.52c0.83-1.61,1.25-3.37,1.25-5.3c0-2.13-0.79-3.82-2.38-5.06c-1.59-1.25-3.52-1.87-5.81-1.87
				c-2.24,0-4.11,0.35-5.62,1.05c-1.51,0.7-2.83,1.94-3.98,3.71l-0.7-0.39c0.57-1.25,1.26-2.46,2.07-3.63
				c0.81-1.17,1.73-2.22,2.77-3.16c1.04-0.94,2.22-1.69,3.55-2.26c1.33-0.57,2.82-0.86,4.48-0.86c3.54,0,6.44,0.92,8.7,2.77
				c2.26,1.85,3.39,4.25,3.39,7.21c0,1.35-0.26,2.63-0.78,3.82c-0.52,1.2-1.26,2.37-2.22,3.51c-0.96,1.14-2.11,2.29-3.43,3.43
				c-1.33,1.14-2.8,2.34-4.41,3.59c1.72,0.36,3.37,0.94,4.95,1.72c1.59,0.78,2.99,1.75,4.21,2.93c1.22,1.17,2.18,2.51,2.89,4.02
				c0.7,1.51,1.06,3.09,1.06,4.76C649.68,119.08,649.05,121.73,647.8,124.12z"/>
		</g>
		<rect x="561.12" y="0.87" class="st2" width="150.27" height="173.81"/>
		<text transform="matrix(1 0 0 1 620.8161 116.088)" class="st7 st4 st49">3</text>
	</g>
	<g>
		<g>
			
				<linearGradient id="SVGID_00000057849525644816262420000006389594446294360970_" gradientUnits="userSpaceOnUse" x1="331.1245" y1="183.7742" x2="481.3951" y2="183.7742">
				<stop  offset="0.0308" style="stop-color:#00FFFF"/>
				<stop  offset="0.5066" style="stop-color:#0000FF"/>
				<stop  offset="1" style="stop-color:#00D3FF"/>
			</linearGradient>
			<path style="fill:url(#SVGID_00000057849525644816262420000006389594446294360970_);" d="M407.12,212.09h-26.6l-0.23-0.62
				c1.77-1.51,3.69-3.18,5.77-5.03c2.08-1.85,4.03-3.78,5.85-5.81c1.82-2.03,3.34-4.1,4.56-6.2c1.22-2.11,1.83-4.12,1.83-6.04
				c0-1.04-0.16-2.07-0.47-3.08s-0.77-1.91-1.36-2.69c-0.6-0.78-1.37-1.4-2.3-1.87c-0.94-0.47-2.03-0.7-3.28-0.7
				c-2.65,0-4.9,0.72-6.75,2.15c-1.85,1.43-3.39,3.16-4.64,5.19l-0.78-0.47c0.57-1.04,1.38-2.27,2.42-3.71
				c1.04-1.43,2.27-2.79,3.71-4.1c1.43-1.3,3-2.4,4.72-3.31c1.72-0.91,3.54-1.36,5.46-1.36c2.6,0,4.77,0.81,6.51,2.42
				c1.74,1.61,2.61,3.82,2.61,6.63c0,2.18-0.48,4.26-1.44,6.24c-0.96,1.98-2.18,3.86-3.67,5.66c-1.48,1.79-3.12,3.52-4.91,5.19
				c-1.79,1.66-3.52,3.28-5.19,4.84v0.16h14.04c1.4,0,2.51-0.1,3.32-0.31c0.81-0.21,1.46-0.51,1.95-0.9
				c0.49-0.39,0.88-0.83,1.17-1.33c0.29-0.49,0.56-1.03,0.82-1.6l0.78,0.23L407.12,212.09z"/>
			
				<linearGradient id="SVGID_00000148662447437115713970000015147731218169051801_" gradientUnits="userSpaceOnUse" x1="331.1245" y1="183.7742" x2="481.3951" y2="183.7742">
				<stop  offset="0.0308" style="stop-color:#00FFFF"/>
				<stop  offset="0.5066" style="stop-color:#0000FF"/>
				<stop  offset="1" style="stop-color:#00D3FF"/>
			</linearGradient>
			<path style="fill:url(#SVGID_00000148662447437115713970000015147731218169051801_);" d="M414.22,212.09v-0.86
				c0.73,0,1.44-0.08,2.15-0.23c0.7-0.16,1.33-0.36,1.87-0.62c0.55-0.26,1-0.61,1.37-1.05c0.36-0.44,0.55-0.95,0.55-1.52v-28.39
				c0-0.62-0.2-1.14-0.58-1.56c-0.39-0.42-0.88-0.75-1.48-1.01c-0.6-0.26-1.26-0.45-1.99-0.58c-0.73-0.13-1.46-0.2-2.18-0.2v-0.86
				h18.95v0.86c-0.68,0-1.38,0.07-2.11,0.2c-0.73,0.13-1.4,0.34-2.03,0.62c-0.62,0.29-1.13,0.64-1.52,1.05
				c-0.39,0.42-0.58,0.94-0.58,1.56v28.39c0,0.68,0.21,1.22,0.62,1.64c0.42,0.42,0.94,0.75,1.56,1.01c0.62,0.26,1.3,0.44,2.03,0.55
				c0.73,0.1,1.4,0.16,2.03,0.16v0.86H414.22z"/>
		</g>
		<rect x="331.12" y="96.87" class="st2" width="150.27" height="173.81"/>
		<text transform="matrix(1 0 0 1 376.9327 212.088)" class="st7 st4 st49">21</text>
	</g>
	<g>
		<g>
			
				<linearGradient id="SVGID_00000118396563134706000010000010740599314996626592_" gradientUnits="userSpaceOnUse" x1="234.1247" y1="521.7742" x2="384.3953" y2="521.7742">
				<stop  offset="0.0308" style="stop-color:#00FFFF"/>
				<stop  offset="0.5066" style="stop-color:#0000FF"/>
				<stop  offset="1" style="stop-color:#00D3FF"/>
			</linearGradient>
			<path style="fill:url(#SVGID_00000118396563134706000010000010740599314996626592_);" d="M280.24,550.09v-0.86
				c0.73,0,1.44-0.08,2.15-0.23c0.7-0.16,1.33-0.36,1.87-0.62c0.55-0.26,1-0.61,1.37-1.05c0.36-0.44,0.55-0.95,0.55-1.52v-28.39
				c0-0.62-0.2-1.14-0.58-1.56c-0.39-0.42-0.88-0.75-1.48-1.01c-0.6-0.26-1.26-0.45-1.99-0.58c-0.73-0.13-1.46-0.2-2.18-0.2v-0.86
				h18.95v0.86c-0.68,0-1.38,0.07-2.11,0.2c-0.73,0.13-1.4,0.34-2.03,0.62c-0.62,0.29-1.13,0.64-1.52,1.05
				c-0.39,0.42-0.58,0.94-0.58,1.56v28.39c0,0.68,0.21,1.22,0.62,1.64c0.42,0.42,0.94,0.75,1.56,1.01c0.62,0.26,1.3,0.44,2.03,0.55
				c0.73,0.1,1.4,0.16,2.03,0.16v0.86H280.24z"/>
			
				<linearGradient id="SVGID_00000012447298751799945180000008423746332646636733_" gradientUnits="userSpaceOnUse" x1="234.1247" y1="521.7742" x2="384.3953" y2="521.7742">
				<stop  offset="0.0308" style="stop-color:#00FFFF"/>
				<stop  offset="0.5066" style="stop-color:#0000FF"/>
				<stop  offset="1" style="stop-color:#00D3FF"/>
			</linearGradient>
			<path style="fill:url(#SVGID_00000012447298751799945180000008423746332646636733_);" d="M338.28,538.7
				c-0.88,2.24-2.12,4.21-3.71,5.93c-1.59,1.72-3.5,3.06-5.73,4.02c-2.24,0.96-4.71,1.44-7.41,1.44c-2.39,0-4.67-0.51-6.83-1.52
				c-2.16-1.01-4.04-2.42-5.65-4.21c-1.61-1.79-2.89-3.87-3.82-6.24c-0.94-2.37-1.4-4.82-1.4-7.37c0-3.12,0.52-6.11,1.56-8.97
				c1.04-2.86,2.46-5.56,4.25-8.11c1.79-2.55,3.86-4.93,6.2-7.14c2.34-2.21,4.81-4.17,7.41-5.89c2.6-1.72,5.23-3.2,7.88-4.45
				c2.65-1.25,5.2-2.21,7.64-2.89l0.62,0.94c-2.03,0.88-4.07,1.99-6.12,3.31c-2.05,1.33-4.07,2.89-6.04,4.68
				c-1.98,1.79-3.84,3.82-5.58,6.08c-1.74,2.26-3.32,4.77-4.72,7.53c0.88-0.26,1.73-0.45,2.54-0.58c0.81-0.13,1.81-0.19,3-0.19
				c2.6,0,4.95,0.43,7.06,1.29c2.11,0.86,3.91,2.04,5.42,3.55c1.51,1.51,2.68,3.26,3.51,5.26c0.83,2,1.25,4.15,1.25,6.44
				C339.6,534.1,339.16,536.46,338.28,538.7z M331.88,528.37c-0.47-2.16-1.19-4.11-2.16-5.85c-0.97-1.74-2.23-3.17-3.77-4.29
				s-3.39-1.68-5.54-1.68c-0.89,0-1.7,0.12-2.44,0.35c-0.73,0.23-1.39,0.66-1.96,1.29c-2.04,2.24-3.43,4.77-4.16,7.6
				c-0.73,2.83-1.1,5.66-1.1,8.46c0,4.68,0.98,8.31,2.95,10.88c1.96,2.57,4.62,3.86,7.97,3.86c3.19,0,5.81-1.18,7.86-3.55
				c2.04-2.37,3.06-5.92,3.06-10.65C332.58,532.67,332.35,530.52,331.88,528.37z"/>
		</g>
		<rect x="234.12" y="434.87" class="st2" width="150.27" height="173.81"/>
		<text transform="matrix(1 0 0 1 276.9686 550.088)" class="st7 st4 st49">16</text>
	</g>
	<g>
		<g>
			
				<linearGradient id="SVGID_00000132086726958026383120000003351733029554252468_" gradientUnits="userSpaceOnUse" x1="438.1245" y1="623.774" x2="588.3951" y2="623.774">
				<stop  offset="0.0308" style="stop-color:#00FFFF"/>
				<stop  offset="0.5066" style="stop-color:#0000FF"/>
				<stop  offset="1" style="stop-color:#00D3FF"/>
			</linearGradient>
			<path style="fill:url(#SVGID_00000132086726958026383120000003351733029554252468_);" d="M488.77,652.09v-0.86
				c0.73,0,1.44-0.08,2.15-0.23c0.7-0.16,1.33-0.36,1.87-0.62c0.55-0.26,1-0.61,1.37-1.05c0.36-0.44,0.55-0.95,0.55-1.52v-28.39
				c0-0.62-0.2-1.14-0.58-1.56c-0.39-0.42-0.88-0.75-1.48-1.01c-0.6-0.26-1.26-0.46-1.99-0.58c-0.73-0.13-1.46-0.2-2.18-0.2v-0.86
				h18.95v0.86c-0.68,0-1.38,0.07-2.11,0.2c-0.73,0.13-1.4,0.34-2.03,0.62c-0.62,0.29-1.13,0.64-1.52,1.05
				c-0.39,0.42-0.58,0.94-0.58,1.56v28.39c0,0.68,0.21,1.22,0.62,1.64c0.42,0.42,0.94,0.75,1.56,1.01c0.62,0.26,1.3,0.44,2.03,0.55
				c0.73,0.11,1.4,0.16,2.03,0.16v0.86H488.77z"/>
			
				<linearGradient id="SVGID_00000126293350282644027700000009242450375661159063_" gradientUnits="userSpaceOnUse" x1="438.1245" y1="623.774" x2="588.3951" y2="623.774">
				<stop  offset="0.0308" style="stop-color:#00FFFF"/>
				<stop  offset="0.5066" style="stop-color:#0000FF"/>
				<stop  offset="1" style="stop-color:#00D3FF"/>
			</linearGradient>
			<path style="fill:url(#SVGID_00000126293350282644027700000009242450375661159063_);" d="M537.13,660.12
				c-1.25,2.39-2.94,4.43-5.07,6.12c-2.13,1.69-4.58,3-7.33,3.94c-2.76,0.94-5.67,1.4-8.74,1.4c-0.73,0-1.5-0.11-2.3-0.31
				c-0.81-0.21-1.53-0.51-2.18-0.9c-0.65-0.39-1.16-0.88-1.52-1.48c-0.36-0.6-0.55-1.31-0.55-2.14c0-0.83,0.2-1.54,0.58-2.11
				c0.39-0.57,1.1-0.86,2.15-0.86c0.88,0,1.64,0.29,2.26,0.88s1.25,1.24,1.87,1.96c0.62,0.72,1.33,1.37,2.11,1.96
				c0.78,0.59,1.72,0.88,2.81,0.88c0.42,0,1.23-0.17,2.46-0.51c1.22-0.34,2.5-0.97,3.82-1.91c1.33-0.93,2.5-2.25,3.51-3.93
				c1.01-1.69,1.52-3.91,1.52-6.66c0-1.87-0.38-3.53-1.13-4.99c-0.75-1.45-1.77-2.71-3.04-3.78c-1.27-1.06-2.76-1.88-4.45-2.45
				c-1.69-0.57-3.47-0.86-5.34-0.86h-1.01l-0.23-0.47c1.35-1.04,2.79-2.15,4.33-3.35c1.53-1.19,2.94-2.49,4.21-3.89
				c1.27-1.4,2.33-2.91,3.16-4.52c0.83-1.61,1.25-3.37,1.25-5.29c0-2.13-0.79-3.82-2.38-5.06c-1.59-1.25-3.52-1.87-5.81-1.87
				c-2.24,0-4.11,0.35-5.62,1.05c-1.51,0.7-2.83,1.94-3.98,3.71l-0.7-0.39c0.57-1.25,1.26-2.46,2.07-3.63
				c0.81-1.17,1.73-2.22,2.77-3.16c1.04-0.94,2.22-1.69,3.55-2.26c1.33-0.57,2.82-0.86,4.48-0.86c3.54,0,6.44,0.92,8.7,2.77
				c2.26,1.85,3.39,4.25,3.39,7.21c0,1.35-0.26,2.63-0.78,3.82c-0.52,1.2-1.26,2.37-2.22,3.51c-0.96,1.14-2.11,2.29-3.43,3.43
				c-1.33,1.14-2.8,2.34-4.41,3.59c1.72,0.36,3.37,0.94,4.95,1.72c1.59,0.78,2.99,1.75,4.21,2.92c1.22,1.17,2.18,2.51,2.89,4.02
				c0.7,1.51,1.06,3.09,1.06,4.76C539,655.08,538.38,657.73,537.13,660.12z"/>
		</g>
		<rect x="438.12" y="536.87" class="st2" width="150.27" height="173.81"/>
		<text transform="matrix(1 0 0 1 485.4924 652.0878)" class="st7 st4 st49">13</text>
	</g>
	<g>
		<g>
			
				<linearGradient id="SVGID_00000041282888032665777910000008290700557612415637_" gradientUnits="userSpaceOnUse" x1="469.1247" y1="460.7742" x2="619.3953" y2="460.7742">
				<stop  offset="0.0308" style="stop-color:#00FFFF"/>
				<stop  offset="0.5066" style="stop-color:#0000FF"/>
				<stop  offset="1" style="stop-color:#00D3FF"/>
			</linearGradient>
			<path style="fill:url(#SVGID_00000041282888032665777910000008290700557612415637_);" d="M559.28,480.24
				c-0.91,1.9-2.13,3.54-3.67,4.91c-1.53,1.38-3.34,2.43-5.42,3.16c-2.08,0.73-4.29,1.09-6.63,1.09c-1.82,0-3.65-0.27-5.5-0.82
				c-1.85-0.55-3.51-1.38-4.99-2.5c-1.48-1.12-2.68-2.47-3.59-4.06c-0.91-1.59-1.36-3.34-1.36-5.27c0-1.61,0.34-3.09,1.01-4.45
				c0.68-1.35,1.56-2.61,2.65-3.78c1.09-1.17,2.3-2.25,3.63-3.24c1.33-0.99,2.64-1.92,3.94-2.81c-1.35-0.94-2.67-1.92-3.94-2.96
				c-1.27-1.04-2.41-2.17-3.39-3.39c-0.99-1.22-1.78-2.59-2.38-4.09c-0.6-1.51-0.9-3.2-0.9-5.07c0-2.08,0.44-4,1.33-5.77
				c0.88-1.77,2.05-3.3,3.51-4.6c1.46-1.3,3.12-2.33,4.99-3.08c1.87-0.75,3.77-1.13,5.69-1.13c2.44,0,4.63,0.33,6.55,0.98
				c1.92,0.65,3.55,1.52,4.88,2.61c1.33,1.09,2.35,2.38,3.08,3.86c0.73,1.48,1.09,3.06,1.09,4.72c0,1.56-0.33,3-0.98,4.33
				c-0.65,1.33-1.52,2.57-2.61,3.74c-1.09,1.17-2.35,2.26-3.78,3.28c-1.43,1.01-2.9,1.99-4.41,2.92c1.09,0.62,2.37,1.37,3.82,2.22
				c1.46,0.86,2.82,1.91,4.09,3.16c1.27,1.25,2.37,2.68,3.28,4.29c0.91,1.61,1.36,3.46,1.36,5.54
				C560.64,476.27,560.19,478.34,559.28,480.24z M553.27,473.49c-0.65-1.4-1.56-2.72-2.73-3.94c-1.17-1.22-2.59-2.35-4.25-3.39
				c-1.66-1.04-3.54-2.05-5.62-3.04c-1.2,0.68-2.22,1.55-3.08,2.61c-0.86,1.07-1.57,2.21-2.15,3.43c-0.57,1.22-1,2.46-1.29,3.71
				c-0.29,1.25-0.43,2.42-0.43,3.51c0,3.74,1.04,6.66,3.12,8.74c2.08,2.08,4.73,3.12,7.96,3.12c1.72,0,3.18-0.3,4.41-0.9
				c1.22-0.6,2.2-1.37,2.92-2.3c0.73-0.94,1.26-1.99,1.6-3.16c0.34-1.17,0.51-2.35,0.51-3.55
				C554.24,476.5,553.92,474.89,553.27,473.49z M553.89,440.38c-0.44-1.33-1.09-2.48-1.95-3.47c-0.86-0.99-1.92-1.77-3.2-2.34
				c-1.27-0.57-2.72-0.86-4.33-0.86c-1.3,0-2.55,0.21-3.74,0.62c-1.2,0.42-2.26,1.01-3.2,1.79s-1.68,1.74-2.22,2.89
				c-0.55,1.14-0.82,2.47-0.82,3.98c0,2.03,0.4,3.82,1.21,5.38c0.81,1.56,1.83,2.95,3.08,4.17c1.25,1.22,2.59,2.28,4.02,3.16
				c1.43,0.88,2.77,1.69,4.02,2.42c2.65-1.51,4.61-3.37,5.89-5.58c1.27-2.21,1.91-4.88,1.91-8
				C554.56,443.09,554.33,441.7,553.89,440.38z"/>
		</g>
		<rect x="469.12" y="373.87" class="st2" width="150.27" height="173.81"/>
		<text transform="matrix(1 0 0 1 525.3065 489.088)" class="st7 st4 st49">8</text>
	</g>
	<g>
		<g>
			
				<linearGradient id="SVGID_00000170966145331868242730000011190177831516078218_" gradientUnits="userSpaceOnUse" x1="1029.1245" y1="268.7742" x2="1179.3951" y2="268.7742">
				<stop  offset="0.0308" style="stop-color:#00FFFF"/>
				<stop  offset="0.5066" style="stop-color:#0000FF"/>
				<stop  offset="1" style="stop-color:#00D3FF"/>
			</linearGradient>
			<path style="fill:url(#SVGID_00000170966145331868242730000011190177831516078218_);" d="M1095.21,297.09v-0.86
				c0.73,0,1.44-0.08,2.15-0.23c0.7-0.16,1.33-0.36,1.87-0.62c0.55-0.26,1-0.61,1.37-1.05c0.36-0.44,0.55-0.95,0.55-1.52v-28.39
				c0-0.62-0.2-1.14-0.58-1.56c-0.39-0.42-0.88-0.75-1.48-1.01c-0.6-0.26-1.26-0.45-1.99-0.58c-0.73-0.13-1.46-0.2-2.18-0.2v-0.86
				h18.95v0.86c-0.68,0-1.38,0.07-2.11,0.2c-0.73,0.13-1.4,0.34-2.03,0.62c-0.62,0.29-1.13,0.64-1.52,1.05
				c-0.39,0.42-0.58,0.94-0.58,1.56v28.39c0,0.68,0.21,1.22,0.62,1.64c0.42,0.42,0.94,0.75,1.56,1.01c0.62,0.26,1.3,0.44,2.03,0.55
				c0.73,0.1,1.4,0.16,2.03,0.16v0.86H1095.21z"/>
		</g>
		<rect x="1029.12" y="181.87" class="st2" width="150.27" height="173.81"/>
		<text transform="matrix(1 0 0 1 1091.9363 297.088)" class="st7 st4 st49">1</text>
	</g>
</g>
</svg>
